<svg width="186" height="50" viewBox="0 0 186 50" fill="none" xmlns="http://www.w3.org/2000/svg">
<g clip-path="url(#clip0_91_219)">
<g filter="url(#filter0_d_91_219)">
<g filter="url(#filter1_di_91_219)">
<path d="M11.0829 42.6739H5V19.5761C6.32717 10.6631 13.4791 7.52903 16.8892 7.07613C23.3039 5.77179 28.4098 9.79352 30.161 11.9674L26.5665 17.4022C25.0182 14.3587 22.4191 13.2355 21.3131 13.0544C14.4561 11.75 11.6359 16.8587 11.0829 19.5761V42.6739Z" fill="#FE6917"/>
</g>
<g filter="url(#filter2_di_91_219)">
<path d="M31.2668 8.70651L28.7783 6.80434L38.1791 3L37.3496 13.0543L34.8612 11.1522V7.34782L31.2668 8.70651Z" fill="#FE6917"/>
</g>
<g filter="url(#filter3_di_91_219)">
<path d="M13.0181 33.1629V25.826C16.1148 29.9564 20.7599 28.9963 22.6954 27.9999C25.1838 27.9999 29.792 19.4854 32.0961 15.2282C35.1929 22.6195 31.5432 28.4528 29.3312 30.4455C23.5801 36.3151 16.0595 34.7028 13.0181 33.1629Z" fill="#7332F1"/>
</g>
<g filter="url(#filter4_di_91_219)">
<path d="M59.6108 18.5982C61.0014 18.5982 62.3059 18.8666 63.5171 19.4077L63.9663 19.6069C64.9988 20.0953 65.9109 20.7374 66.6987 21.5337C67.6293 22.4483 68.3525 23.5241 68.8696 24.7544C69.3894 25.9657 69.6479 27.2668 69.6479 28.6519C69.6479 30.0363 69.39 31.348 68.8726 32.5816C68.3819 33.7871 67.6847 34.8498 66.7817 35.7642C65.879 36.6782 64.8135 37.4027 63.5903 37.937L63.5806 37.9409C62.3471 38.4527 61.0216 38.7065 59.6108 38.7066C57.8689 38.7065 56.242 38.3039 54.7397 37.4986L54.4517 37.3443V32.5239L55.3315 33.1597C56.4914 33.9971 57.8709 34.4243 59.4946 34.4243C60.3604 34.4243 61.1249 34.2819 61.7964 34.0093C62.5031 33.7075 63.0806 33.308 63.5376 32.814L63.5415 32.8091L63.5464 32.8042C64.0319 32.3043 64.4046 31.711 64.6636 31.0191C64.9244 30.2966 65.0581 29.5086 65.0581 28.6519C65.0581 27.7948 64.9244 27.0214 64.6655 26.3277L64.6636 26.3228C64.4017 25.5975 64.0373 24.9898 63.5757 24.4907C63.1175 23.9954 62.5537 23.6089 61.8765 23.3335L61.8657 23.3296L61.856 23.3247C61.2176 23.0334 60.4726 22.8804 59.6108 22.8804C58.7734 22.8804 58.0212 23.0203 57.3481 23.2935C56.6979 23.5678 56.1303 23.9554 55.6421 24.4566C55.1822 24.9549 54.8193 25.5613 54.5581 26.2847L54.5562 26.2905C54.2979 26.9827 54.1636 27.7676 54.1636 28.6519V46.9995H49.5747V28.6519C49.5747 27.2653 49.832 25.9516 50.3511 24.7163C50.8673 23.488 51.5784 22.4245 52.4849 21.5337C53.3318 20.6777 54.3223 19.9997 55.4517 19.4995L55.6802 19.4019C56.9118 18.8655 58.2239 18.5982 59.6108 18.5982ZM103.799 23.8589C103.799 26.338 104.216 28.3815 105.021 30.0122C105.776 31.5403 107.126 32.8733 109.124 33.9966C111.074 32.8514 112.404 31.5072 113.161 29.9751L113.165 29.9693C113.994 28.3394 114.422 26.3099 114.422 23.8589V10.6089H119.167V23.9732C119.166 27.4828 118.346 30.5655 116.684 33.1997L116.682 33.2017C115.012 35.8219 112.54 37.7684 109.297 39.0484L109.092 39.1284L108.887 39.0484C105.672 37.7949 103.2 35.8899 101.504 33.3237C99.8125 30.7635 98.9771 27.7526 98.9771 24.315V10.6089H103.799V23.8589ZM132.163 18.5982H132.167C134.419 18.6893 136.204 19.1957 137.432 20.1968C138.682 21.216 139.277 22.6825 139.277 24.5054C139.277 26.7523 138.52 28.5188 136.94 29.7027C135.389 30.8651 133.127 31.4019 130.247 31.4019H128.107V27.3862H130.518C132.226 27.3862 133.261 27.1285 133.777 26.7407C134.265 26.3496 134.571 25.6661 134.571 24.5435C134.571 23.9132 134.347 23.5143 133.932 23.2486L133.925 23.2437L133.918 23.2398C133.441 22.9132 132.798 22.728 131.95 22.728C130.267 22.7281 128.988 23.301 128.046 24.4263C127.1 25.5888 126.62 26.9879 126.62 28.6519C126.62 30.4161 127.137 31.7967 128.134 32.8452C129.154 33.8909 130.474 34.4243 132.144 34.4243C133.678 34.4243 134.878 34.0537 135.792 33.3579L136.174 33.0679L139.282 36.0718L138.802 36.4546C136.917 37.9582 134.689 38.7065 132.144 38.7066C129.087 38.7066 126.588 37.8199 124.71 36.0015C122.838 34.1884 121.914 31.8489 121.914 29.0327C121.914 25.9315 122.813 23.3692 124.653 21.3989C126.452 19.4723 128.881 18.5508 131.872 18.5913L132.163 18.5982ZM108.8 38.4273L109.091 38.5435C108.94 38.4846 108.792 38.4227 108.644 38.3609C108.696 38.3827 108.748 38.4058 108.8 38.4273ZM45.6343 38.3257H40.8892V10.6089H45.6343V38.3257ZM86.5913 23.2612H79.187C78.5085 23.2613 77.9552 23.3867 77.5083 23.6167C77.108 23.8228 76.9918 24.0516 76.9917 24.315C76.9917 24.537 77.0378 24.7296 77.1226 24.8999C77.2249 25.0791 77.3304 25.2179 77.4351 25.3237C77.5712 25.4353 77.7802 25.5712 78.0767 25.729C78.4057 25.8676 78.658 25.9735 78.8335 26.0474C79.1249 26.1255 79.9549 26.381 81.2915 26.8032C82.7409 27.2611 83.8352 27.6487 84.5601 27.9653C85.3289 28.3012 85.9424 28.7754 86.3706 29.3989C86.7918 29.9527 87.076 30.5294 87.1987 31.1275C87.3096 31.6453 87.3657 32.1648 87.3657 32.6851C87.3657 34.5227 86.7142 35.9759 85.3579 36.9468C84.034 37.8943 82.1155 38.3256 79.6909 38.3257H72.4409V34.0435H79.6909C80.8725 34.0434 81.6731 33.8857 82.1597 33.6314C82.3947 33.5085 82.5426 33.3702 82.6333 33.228C82.7227 33.0877 82.7758 32.9133 82.7759 32.6851C82.7759 32.3373 82.5885 31.9821 81.9712 31.6353L81.9634 31.6304C81.3201 31.2558 80.5041 30.9296 79.5054 30.6597L79.5015 30.6587C78.4837 30.3766 77.4531 30.0563 76.4106 29.6978L76.395 29.6919C75.3034 29.2792 74.364 28.6311 73.5835 27.7544L73.5718 27.7407C72.7842 26.7945 72.4019 25.6409 72.4019 24.315C72.4019 22.6064 73.0844 21.2536 74.4565 20.3325L74.7075 20.1665C75.9766 19.3671 77.478 18.9781 79.187 18.978H86.5913V23.2612ZM161.143 38.3257H151.494C148.553 38.3257 146.121 37.4063 144.249 35.5396L144.246 35.5366C142.381 33.6506 141.458 31.2779 141.458 28.4614C141.458 25.6881 142.413 23.3412 144.329 21.4585C146.26 19.56 148.567 18.5983 151.222 18.5982C152.916 18.5982 154.506 19.0013 155.982 19.8071L156.266 19.9634V24.7671L155.39 24.147C154.201 23.3055 152.818 22.8804 151.222 22.8804C149.919 22.8805 148.808 23.3244 147.865 24.2319L147.679 24.4194C146.735 25.4155 146.241 26.7445 146.241 28.4614C146.241 30.2115 146.713 31.5555 147.608 32.5493C148.515 33.5287 149.786 34.0435 151.494 34.0435H156.553V10.6089H161.143V38.3257ZM172.667 18.978C175.257 18.9781 177.332 19.609 178.809 20.9487C180.293 22.2954 181 24.2077 181 26.5982V38.3257H171.815C169.543 38.3257 167.67 37.8263 166.254 36.7691C164.803 35.6851 164.101 34.1043 164.101 32.1148C164.101 30.1124 164.852 28.5289 166.383 27.4497C167.864 26.406 169.701 25.9019 171.854 25.9019C173.081 25.9019 174.376 26.1164 175.736 26.5357L176.123 26.6548V31.5767L175.234 30.9097C174.364 30.2574 173.287 29.9185 171.97 29.9185C170.823 29.9185 170.012 30.1477 169.47 30.5366L169.458 30.5444C168.95 30.8907 168.691 31.3762 168.691 32.0757C168.691 32.7567 168.935 33.204 169.395 33.5083C169.894 33.8383 170.712 34.0434 171.931 34.0435H176.488V27.3208C176.488 25.8669 176.127 24.8765 175.503 24.2476C174.882 23.6212 173.907 23.2613 172.473 23.2612H165.726V18.978H172.667ZM108.076 38.1118C108.186 38.1626 108.298 38.2123 108.411 38.2612C108.298 38.2123 108.186 38.1626 108.076 38.1118ZM132.144 38.1626C132 38.1626 131.858 38.1589 131.717 38.1548C131.768 38.1563 131.819 38.1597 131.87 38.1607L132.144 38.1636C132.296 38.1636 132.446 38.1604 132.595 38.1548C132.446 38.1604 132.296 38.1626 132.144 38.1626ZM59.0103 38.145C59.1072 38.1506 59.2045 38.1559 59.3022 38.1587L59.6108 38.1626C59.7703 38.1626 59.9285 38.1587 60.0854 38.1519C59.9286 38.1587 59.7702 38.1626 59.6108 38.1626C59.4089 38.1626 59.2087 38.1564 59.0103 38.145ZM110 38.1548C110.072 38.1217 110.145 38.0891 110.216 38.0552C110.145 38.0891 110.072 38.1217 110 38.1548ZM131.227 38.1314C131.307 38.1365 131.387 38.1413 131.468 38.145C131.387 38.1413 131.307 38.1365 131.227 38.1314ZM60.2769 38.1402C60.378 38.1339 60.4786 38.1277 60.5786 38.1187C60.4786 38.1277 60.378 38.1339 60.2769 38.1402ZM58.7241 38.1245C58.7556 38.1272 58.7872 38.129 58.8188 38.1314C58.7872 38.129 58.7556 38.1272 58.7241 38.1245ZM58.4077 38.0923C58.4713 38.0998 58.5352 38.1055 58.5991 38.1118C58.5352 38.1055 58.4713 38.0998 58.4077 38.0923ZM130.701 38.0874C130.782 38.096 130.864 38.1048 130.947 38.1118C130.864 38.1048 130.782 38.096 130.701 38.0874ZM60.7173 38.103C60.8282 38.0914 60.9387 38.0801 61.0483 38.065C60.9387 38.0801 60.8282 38.0914 60.7173 38.103ZM58.1333 38.0562C58.1975 38.0656 58.2621 38.0734 58.3267 38.0816C58.2621 38.0734 58.1975 38.0656 58.1333 38.0562ZM130.187 38.022C130.273 38.0347 130.359 38.0472 130.446 38.0581C130.359 38.0472 130.273 38.0347 130.187 38.022ZM61.1968 38.0415C61.3016 38.0254 61.4057 38.0082 61.5093 37.9888C61.4057 38.0082 61.3016 38.0254 61.1968 38.0415ZM57.8628 38.0122C57.9001 38.0188 57.9376 38.0246 57.9751 38.0308C57.9376 38.0246 57.9001 38.0188 57.8628 38.0122ZM107.583 37.8755C107.667 37.9173 107.751 37.9588 107.836 37.9995C107.751 37.9588 107.667 37.9173 107.583 37.8755ZM129.73 37.9448C129.806 37.9593 129.882 37.9738 129.959 37.9868C129.882 37.9738 129.806 37.9593 129.73 37.9448ZM57.5679 37.9556C57.6137 37.9651 57.6596 37.9741 57.7056 37.9829C57.6596 37.974 57.6137 37.9651 57.5679 37.9556ZM61.6841 37.9536C61.7747 37.9349 61.8649 37.9154 61.9546 37.8941C61.8649 37.9153 61.7747 37.9349 61.6841 37.9536ZM57.2788 37.8902C57.3272 37.9018 57.3757 37.9134 57.4243 37.9243C57.3757 37.9134 57.3272 37.9018 57.2788 37.8902ZM129.243 37.8403C129.316 37.8577 129.389 37.8752 129.462 37.8911C129.389 37.8752 129.316 37.8577 129.243 37.8403ZM57.0376 37.8286C57.0714 37.8377 57.1052 37.8472 57.1392 37.856C57.1052 37.8472 57.0714 37.8377 57.0376 37.8286ZM62.1323 37.8491C62.2235 37.8256 62.3146 37.8021 62.4048 37.7759C62.3146 37.8021 62.2235 37.8256 62.1323 37.8491ZM110.68 37.8277C110.699 37.8182 110.717 37.8088 110.736 37.7993C110.717 37.8088 110.699 37.8182 110.68 37.8277ZM128.77 37.7163C128.851 37.7399 128.933 37.763 129.016 37.7847C128.933 37.7629 128.851 37.7399 128.77 37.7163ZM150.463 37.7417C150.128 37.7144 149.801 37.6734 149.483 37.6187C149.801 37.6734 150.128 37.7144 150.463 37.7417ZM41.4419 37.7827H41.4429V11.1519H41.4419V37.7827ZM80.9487 37.7378C80.6842 37.7571 80.4108 37.7713 80.1284 37.7778C80.4108 37.7713 80.6843 37.7571 80.9487 37.7378ZM56.769 37.7525C56.7892 37.7585 56.8094 37.7641 56.8296 37.77C56.8094 37.7641 56.7892 37.7585 56.769 37.7525ZM81.0288 37.7319C81.1358 37.7236 81.2412 37.7141 81.3452 37.7036C81.2412 37.7141 81.1358 37.7236 81.0288 37.7319ZM107.049 37.5991C107.128 37.6419 107.208 37.6844 107.288 37.7261C107.208 37.6844 107.128 37.6419 107.049 37.5991ZM62.604 37.7144C62.675 37.692 62.7456 37.6691 62.8159 37.645C62.7456 37.6691 62.675 37.692 62.604 37.7144ZM56.4282 37.6431C56.4853 37.6627 56.5427 37.6812 56.6001 37.6997C56.5427 37.6812 56.4853 37.6627 56.4282 37.6431ZM81.4058 37.6968C81.5115 37.6856 81.6156 37.6731 81.7183 37.6597C81.6156 37.6731 81.5115 37.6856 81.4058 37.6968ZM128.326 37.5757C128.405 37.6028 128.484 37.6296 128.564 37.6548C128.484 37.6296 128.405 37.6028 128.326 37.5757ZM81.8022 37.648C81.894 37.6353 81.9845 37.6224 82.0737 37.6079C81.9845 37.6224 81.894 37.6353 81.8022 37.648ZM56.1626 37.5474C56.2187 37.5685 56.2751 37.5888 56.3315 37.6089C56.2751 37.5888 56.2187 37.5685 56.1626 37.5474ZM82.186 37.5884C82.2628 37.5752 82.3387 37.562 82.4136 37.5474C82.3387 37.562 82.2628 37.5752 82.186 37.5884ZM111.154 37.5757C111.192 37.5549 111.23 37.5352 111.267 37.5142C111.23 37.5352 111.192 37.5549 111.154 37.5757ZM63.0454 37.564C63.079 37.5515 63.1135 37.5407 63.147 37.5278L63.3657 37.44L63.0454 37.564ZM82.5288 37.5239C82.603 37.5086 82.6763 37.4928 82.7485 37.4761C82.6763 37.4928 82.603 37.5086 82.5288 37.5239ZM55.9048 37.4458C55.9564 37.467 56.0081 37.488 56.0601 37.5083C56.0081 37.488 55.9564 37.467 55.9048 37.4458ZM127.925 37.4273C127.988 37.4522 128.052 37.4778 128.116 37.5015C128.052 37.4778 127.988 37.4522 127.925 37.4273ZM106.517 37.2974C106.611 37.3532 106.706 37.4091 106.802 37.4634C106.706 37.4091 106.611 37.3532 106.517 37.2974ZM82.8735 37.4458C82.9382 37.4299 83.0019 37.4131 83.0649 37.396C83.0019 37.4131 82.9382 37.4299 82.8735 37.4458ZM55.7065 37.3618C55.7297 37.3719 55.7527 37.3822 55.7759 37.3921C55.7527 37.3822 55.7297 37.3719 55.7065 37.3618ZM111.528 37.3628C111.612 37.3136 111.695 37.2648 111.778 37.2144C111.695 37.2648 111.612 37.3136 111.528 37.3628ZM83.1899 37.3618C83.2493 37.3448 83.3079 37.3272 83.3657 37.3091C83.3079 37.3272 83.2493 37.3448 83.1899 37.3618ZM127.484 37.2398C127.55 37.2702 127.617 37.3016 127.684 37.3306C127.617 37.3016 127.55 37.2702 127.484 37.2398ZM83.5044 37.2642C83.5592 37.2459 83.6131 37.2268 83.6665 37.2075C83.6131 37.2268 83.5592 37.2459 83.5044 37.2642ZM106.034 36.9995C106.125 37.0584 106.217 37.1171 106.311 37.1743C106.217 37.1171 106.125 37.0584 106.034 36.9995ZM83.7759 37.1675C83.8382 37.1438 83.8991 37.1184 83.9595 37.0933C83.8991 37.1184 83.8382 37.1438 83.7759 37.1675ZM127.051 37.0269C127.13 37.0681 127.208 37.1099 127.288 37.1489C127.208 37.1099 127.13 37.0681 127.051 37.0269ZM112.02 37.0611C112.098 37.0114 112.176 36.9624 112.252 36.9116C112.176 36.9624 112.098 37.0114 112.02 37.0611ZM84.0601 37.0513C84.1127 37.0283 84.1642 37.004 84.2153 36.98C84.1642 37.004 84.1127 37.0283 84.0601 37.0513ZM126.661 36.8071C126.734 36.8507 126.807 36.8946 126.881 36.9361C126.807 36.8946 126.734 36.8507 126.661 36.8071ZM84.3364 36.9234C84.377 36.9032 84.416 36.8808 84.4556 36.8599C84.416 36.8808 84.377 36.9032 84.3364 36.9234ZM105.531 36.6626C105.627 36.7298 105.724 36.7965 105.822 36.8618C105.724 36.7965 105.627 36.7298 105.531 36.6626ZM84.5747 36.7974C84.6153 36.7746 84.6543 36.7497 84.6938 36.7261C84.6543 36.7497 84.6153 36.7746 84.5747 36.7974ZM112.49 36.7495C112.57 36.694 112.65 36.6384 112.729 36.5816C112.65 36.6384 112.57 36.694 112.49 36.7495ZM126.243 36.5415C126.33 36.6008 126.418 36.6593 126.507 36.7153C126.418 36.6593 126.33 36.6008 126.243 36.5415ZM105.077 36.3316C105.176 36.4072 105.276 36.4827 105.378 36.5562C105.276 36.4827 105.176 36.4072 105.077 36.3316ZM85.0327 36.5083C85.1061 36.4558 85.1768 36.401 85.2456 36.3452C85.1768 36.401 85.1061 36.4558 85.0327 36.5083ZM125.892 36.2905C125.972 36.3513 126.053 36.4115 126.135 36.4693C126.053 36.4115 125.972 36.3513 125.892 36.2905ZM112.914 36.4448C113.007 36.3753 113.1 36.3063 113.191 36.2349C113.1 36.3063 113.007 36.3753 112.914 36.4448ZM85.2964 36.3013C85.3448 36.2608 85.3928 36.2204 85.439 36.1782C85.3928 36.2204 85.3448 36.2608 85.2964 36.3013ZM104.658 35.9995C104.741 36.068 104.824 36.1368 104.91 36.2036C104.824 36.1368 104.741 36.068 104.658 35.9995ZM124.5 34.9751C124.686 35.1954 124.887 35.408 125.099 35.6138C125.315 35.8229 125.54 36.0193 125.774 36.2027C125.54 36.0193 125.315 35.8229 125.099 35.6138C124.88 35.4014 124.674 35.1815 124.482 34.9536L124.5 34.9751ZM85.5259 36.0952C85.5574 36.0647 85.5883 36.0338 85.6187 36.0025C85.5883 36.0338 85.5574 36.0647 85.5259 36.0952ZM113.364 36.0952C113.446 36.029 113.527 35.9628 113.607 35.895C113.527 35.9628 113.446 36.029 113.364 36.0952ZM166.154 35.9712C166.164 35.9808 166.175 35.99 166.185 35.9995C166.175 35.99 166.164 35.9808 166.154 35.9712ZM85.6938 35.9224C85.7274 35.8857 85.7604 35.8488 85.7925 35.8111C85.7604 35.8488 85.7274 35.8857 85.6938 35.9224ZM104.207 35.6138C104.299 35.6964 104.392 35.7784 104.487 35.8589C104.392 35.7784 104.299 35.6964 104.207 35.6138ZM165.955 35.771C165.983 35.801 166.012 35.8296 166.042 35.8589C166.012 35.8296 165.983 35.801 165.955 35.771ZM113.796 35.73C113.874 35.6617 113.951 35.5937 114.027 35.5239C113.951 35.5937 113.874 35.6617 113.796 35.73ZM85.8647 35.7222C85.8904 35.6901 85.9163 35.6583 85.9409 35.6255C85.9163 35.6583 85.8904 35.6901 85.8647 35.7222ZM165.771 35.564C165.798 35.5962 165.826 35.6271 165.854 35.6587C165.826 35.6271 165.798 35.5962 165.771 35.564ZM86.0278 35.5044C86.0469 35.4769 86.0661 35.4494 86.0845 35.4214C86.0661 35.4494 86.0469 35.4769 86.0278 35.5044ZM103.851 35.2837C103.928 35.3577 104.005 35.4321 104.083 35.5044C104.005 35.4321 103.928 35.3577 103.851 35.2837ZM165.6 35.3452C165.621 35.3735 165.642 35.4014 165.664 35.4292C165.642 35.4014 165.621 35.3735 165.6 35.3452ZM86.1528 35.313C86.1781 35.2716 86.2022 35.2295 86.2261 35.187C86.2022 35.2295 86.1781 35.2716 86.1528 35.313ZM114.262 35.3003C114.312 35.2522 114.362 35.2045 114.411 35.1558C114.362 35.2045 114.312 35.2522 114.262 35.3003ZM165.453 35.1304C165.467 35.1527 165.482 35.1748 165.497 35.1968C165.482 35.1748 165.467 35.1527 165.453 35.1304ZM103.422 34.8521C103.507 34.9416 103.592 35.0313 103.68 35.1187C103.592 35.0313 103.507 34.9416 103.422 34.8521ZM86.2749 35.0972C86.2976 35.0543 86.3201 35.0112 86.3413 34.9673C86.3201 35.0112 86.2976 35.0543 86.2749 35.0972ZM165.301 34.8784C165.32 34.9129 165.34 34.9471 165.36 34.981C165.34 34.9471 165.32 34.9129 165.301 34.8784ZM114.608 34.9536C114.674 34.8849 114.739 34.8156 114.803 34.7456C114.739 34.8156 114.674 34.8849 114.608 34.9536ZM134.36 34.6724C134.194 34.7216 134.023 34.7644 133.847 34.8013C133.672 34.8381 133.492 34.8695 133.307 34.8941H133.308C133.677 34.8449 134.028 34.7706 134.36 34.6724ZM124.229 34.6392C124.298 34.7296 124.371 34.8177 124.444 34.9058C124.362 34.807 124.281 34.7076 124.205 34.606L124.229 34.6392ZM86.3882 34.8677C86.4099 34.8195 86.4306 34.7706 86.4507 34.7212C86.4306 34.7706 86.4099 34.8195 86.3882 34.8677ZM102.994 34.3804C103.099 34.5026 103.206 34.6233 103.316 34.7417C103.206 34.6233 103.099 34.5026 102.994 34.3804ZM144.043 34.4927C144.112 34.5762 144.184 34.6571 144.255 34.7388C144.177 34.6499 144.1 34.5612 144.026 34.4702L144.043 34.4927ZM165.17 34.6245C165.186 34.657 165.202 34.6892 165.218 34.7212C165.202 34.6892 165.186 34.657 165.17 34.6245ZM86.4917 34.6177C86.5072 34.5765 86.5213 34.5347 86.5356 34.4927C86.5213 34.5347 86.5072 34.5765 86.4917 34.6177ZM114.977 34.5523C115.039 34.4825 115.1 34.4123 115.16 34.3413C115.1 34.4123 115.039 34.4825 114.977 34.5523ZM123.954 34.2544C124.017 34.3476 124.083 34.4389 124.15 34.5298C124.083 34.4389 124.017 34.3476 123.954 34.2544ZM165.062 34.3804C165.076 34.4135 165.09 34.4463 165.104 34.479C165.09 34.4463 165.076 34.4135 165.062 34.3804ZM143.762 34.1294C143.829 34.2203 143.899 34.3091 143.97 34.398C143.899 34.3091 143.829 34.2203 143.762 34.1294ZM86.5757 34.3716C86.5909 34.3227 86.6049 34.2731 86.6187 34.2232C86.6049 34.2731 86.5909 34.3227 86.5757 34.3716ZM109.912 34.1568C109.814 34.2191 109.714 34.2801 109.614 34.3413C109.844 34.2016 110.066 34.0596 110.28 33.9136L109.912 34.1568ZM102.676 33.9966C102.768 34.1118 102.861 34.2264 102.957 34.3384C102.861 34.2264 102.768 34.1118 102.676 33.9966ZM164.955 34.0913C164.97 34.1356 164.984 34.1797 165 34.2232C164.984 34.1797 164.97 34.1356 164.955 34.0913ZM168.795 33.731C169.003 33.9235 169.259 34.083 169.565 34.2105C169.259 34.0829 169.003 33.9235 168.795 33.731ZM123.733 33.9126C123.778 33.986 123.826 34.0573 123.873 34.1294C123.826 34.0573 123.778 33.986 123.733 33.9126ZM86.6489 34.1118C86.6595 34.0693 86.6686 34.0262 86.6782 33.9829C86.6686 34.0262 86.6595 34.0693 86.6489 34.1118ZM115.349 34.1118C115.402 34.0459 115.455 33.9796 115.507 33.9126C115.455 33.9796 115.402 34.0459 115.349 34.1118ZM164.881 33.8569C164.889 33.8851 164.897 33.9131 164.906 33.9409C164.897 33.9131 164.889 33.8851 164.881 33.8569ZM143.506 33.7632C143.543 33.8183 143.582 33.8718 143.62 33.9263C143.582 33.8718 143.543 33.8183 143.506 33.7632ZM101.968 33.0269C102.167 33.3272 102.377 33.6181 102.598 33.8999C102.377 33.6181 102.168 33.3272 101.969 33.0269H101.968ZM83.1782 33.3794C83.0856 33.5691 82.949 33.7344 82.771 33.8794C82.9491 33.7344 83.0856 33.5691 83.1782 33.3794ZM86.7095 33.8345C86.7184 33.7877 86.7261 33.7405 86.7339 33.6929C86.7261 33.7405 86.7184 33.7877 86.7095 33.8345ZM168.763 33.7017C168.767 33.7054 168.771 33.7088 168.775 33.7124C168.747 33.6857 168.72 33.6583 168.694 33.6304L168.763 33.7017ZM115.677 33.688C115.728 33.6194 115.779 33.5507 115.829 33.481C115.779 33.5507 115.728 33.6194 115.677 33.688ZM123.517 33.5337C123.542 33.5794 123.568 33.6242 123.593 33.6694C123.568 33.6242 123.542 33.5794 123.517 33.5337ZM168.63 33.5591C168.65 33.5822 168.67 33.6051 168.691 33.6275C168.67 33.6051 168.65 33.5822 168.63 33.5591ZM143.265 33.3765C143.305 33.4441 143.347 33.5101 143.389 33.5767C143.347 33.5101 143.305 33.4441 143.265 33.3765ZM86.7544 33.564C86.7649 33.4885 86.7731 33.412 86.7808 33.3345C86.7731 33.412 86.7649 33.4885 86.7544 33.564ZM168.479 33.356C168.496 33.3821 168.514 33.4078 168.532 33.4331C168.514 33.4078 168.496 33.3821 168.479 33.356ZM123.322 33.145C123.351 33.2073 123.383 33.2682 123.414 33.3296C123.383 33.2682 123.351 33.2073 123.322 33.145ZM86.7856 33.2896C86.7943 33.1941 86.8017 33.0971 86.8062 32.9986C86.8017 33.0971 86.7943 33.1941 86.7856 33.2896ZM115.988 33.2515C116.012 33.2163 116.037 33.1824 116.061 33.147L116.179 32.9653C116.117 33.062 116.052 33.1567 115.988 33.2515ZM143.051 32.9907C143.095 33.0753 143.142 33.1586 143.189 33.2417C143.142 33.1586 143.095 33.0753 143.051 32.9907ZM168.308 33.0259C168.319 33.0533 168.331 33.0802 168.343 33.1069C168.331 33.0803 168.319 33.0533 168.308 33.0259ZM123.145 32.7417C123.171 32.8061 123.199 32.8696 123.227 32.9331C123.199 32.8696 123.171 32.8061 123.145 32.7417ZM142.864 32.6069C142.9 32.6858 142.938 32.7636 142.977 32.8413C142.938 32.7636 142.9 32.6858 142.864 32.6069ZM168.172 31.6128C168.149 31.76 168.137 31.9143 168.137 32.0757C168.137 32.3174 168.165 32.5418 168.217 32.7486C168.176 32.5867 168.15 32.4142 168.141 32.231L168.138 32.0757C168.138 31.8738 168.156 31.6831 168.193 31.5034L168.172 31.6128ZM122.987 32.3208C123.013 32.396 123.041 32.4703 123.069 32.5444C123.041 32.4703 123.013 32.396 122.987 32.3208ZM142.681 32.1831C142.715 32.267 142.751 32.3495 142.787 32.4321C142.751 32.3495 142.715 32.267 142.681 32.1831ZM122.852 31.898C122.876 31.9808 122.903 32.0625 122.929 32.1441C122.903 32.0625 122.876 31.9808 122.852 31.898ZM99.5298 24.315C99.5298 25.989 99.7326 27.5523 100.139 29.0044C100.292 29.5486 100.473 30.0773 100.682 30.5903C100.892 31.1037 101.13 31.6014 101.397 32.0835L101.14 31.5962C100.067 29.4622 99.5308 27.0349 99.5308 24.315V11.1519H99.5298V24.315ZM142.526 31.7593C142.558 31.8546 142.593 31.9488 142.628 32.0425C142.593 31.9488 142.558 31.8546 142.526 31.7593ZM68.5991 31.7378C68.6243 31.663 68.6501 31.5886 68.6733 31.5132C68.6501 31.5886 68.6243 31.663 68.5991 31.7378ZM122.733 31.4409C122.756 31.5409 122.783 31.6396 122.809 31.7378C122.783 31.6396 122.756 31.5409 122.733 31.4409ZM142.394 31.3403C142.422 31.437 142.452 31.5324 142.483 31.6275C142.452 31.5324 142.422 31.437 142.394 31.3403ZM82.7192 31.4868C82.7701 31.5297 82.8173 31.574 82.8618 31.6187C82.8173 31.574 82.7701 31.5297 82.7192 31.4868ZM168.221 31.3794C168.211 31.4195 168.201 31.4602 168.193 31.5015C168.201 31.4602 168.211 31.4195 168.221 31.3794ZM168.252 31.272C168.244 31.2997 168.236 31.3277 168.228 31.356C168.236 31.3277 168.244 31.2997 168.252 31.272ZM82.2456 31.1636V31.1626V31.1636ZM68.729 31.3169C68.7521 31.2356 68.7765 31.1547 68.7974 31.0728C68.7765 31.1547 68.7521 31.2356 68.729 31.3169ZM122.638 30.9888C122.657 31.0936 122.679 31.1973 122.702 31.3003C122.679 31.1973 122.657 31.0936 122.638 30.9888ZM86.6577 31.2388C86.646 31.1814 86.632 31.1243 86.6167 31.0669C86.632 31.1243 86.646 31.1814 86.6577 31.2388ZM142.281 30.9028C142.302 30.9955 142.327 31.087 142.351 31.1782C142.327 31.087 142.302 30.9954 142.281 30.9028ZM117.191 31.0884C117.211 31.0444 117.231 31.0008 117.25 30.9566C117.231 31.0008 117.211 31.0444 117.191 31.0884ZM86.5923 30.9839C86.5822 30.9498 86.5724 30.9154 86.561 30.8814C86.5725 30.9154 86.5821 30.9498 86.5923 30.9839ZM164.778 30.8296C164.773 30.8539 164.769 30.8784 164.764 30.9028C164.769 30.8784 164.773 30.8539 164.778 30.8296ZM128.66 30.8589H128.661V27.9292H128.66V30.8589ZM122.569 30.5542C122.583 30.6543 122.598 30.7535 122.615 30.8521C122.598 30.7535 122.583 30.6543 122.569 30.5542ZM130.993 30.8433C131.086 30.84 131.179 30.8381 131.271 30.8335C131.179 30.8381 131.086 30.84 130.993 30.8433ZM68.853 30.8335C68.8684 30.7659 68.8841 30.6984 68.8979 30.6304C68.8841 30.6984 68.8684 30.7659 68.853 30.8335ZM86.52 30.7681C86.5106 30.743 86.5009 30.718 86.4907 30.6929C86.5009 30.718 86.5106 30.743 86.52 30.7681ZM132.138 30.7681C132.163 30.7656 132.187 30.7638 132.211 30.7612C132.187 30.7638 132.163 30.7656 132.138 30.7681ZM132.482 30.729C132.545 30.7213 132.607 30.714 132.668 30.7056C132.607 30.714 132.545 30.7213 132.482 30.729ZM142.191 30.4761C142.207 30.561 142.225 30.6452 142.243 30.729C142.225 30.6452 142.207 30.561 142.191 30.4761ZM132.926 30.6665C132.985 30.6573 133.043 30.649 133.101 30.6392C133.043 30.649 132.985 30.6573 132.926 30.6665ZM117.394 30.6138C117.415 30.5621 117.437 30.5106 117.458 30.4585C117.437 30.5106 117.415 30.562 117.394 30.6138ZM86.4526 30.6021C86.4418 30.5774 86.4309 30.5526 86.4194 30.5278C86.4309 30.5526 86.4418 30.5774 86.4526 30.6021ZM133.317 30.5991C133.39 30.5854 133.462 30.572 133.534 30.5571C133.462 30.572 133.39 30.5854 133.317 30.5991ZM133.663 30.5278C133.754 30.5076 133.845 30.4884 133.934 30.4663C133.845 30.4884 133.754 30.5077 133.663 30.5278ZM175.569 27.0542V30.4771L175.57 30.478V27.0542H175.569ZM168.719 30.4605C168.72 30.4596 168.721 30.4593 168.722 30.4585L168.801 30.3765C168.773 30.404 168.746 30.4319 168.719 30.4605ZM86.3774 30.44C86.3592 30.4033 86.3395 30.3672 86.3198 30.3306C86.3395 30.3672 86.3592 30.4034 86.3774 30.44ZM134.166 30.4048C134.214 30.3915 134.263 30.3787 134.311 30.3648C134.263 30.3787 134.214 30.3915 134.166 30.4048ZM68.9409 30.398C68.9536 30.3265 68.9669 30.2551 68.978 30.1831C68.9669 30.2551 68.9536 30.3265 68.9409 30.398ZM122.514 30.0718C122.524 30.1788 122.536 30.2849 122.548 30.3902C122.536 30.2849 122.524 30.1788 122.514 30.0718ZM168.813 30.3648C168.82 30.3576 168.829 30.3514 168.836 30.3443C168.829 30.3514 168.82 30.3576 168.813 30.3648ZM164.934 30.2437C164.923 30.2768 164.914 30.3107 164.904 30.3443C164.914 30.3107 164.923 30.2768 164.934 30.2437ZM134.525 30.2984C134.578 30.2815 134.632 30.2662 134.684 30.2486C134.632 30.2662 134.578 30.2815 134.525 30.2984ZM86.061 29.9077C86.1429 30.0259 86.2172 30.144 86.2837 30.2622C86.2172 30.144 86.143 30.0259 86.061 29.9077ZM142.115 30.0064C142.126 30.0902 142.139 30.1735 142.153 30.2564C142.139 30.1735 142.126 30.0902 142.115 30.0064ZM134.867 30.1831C134.925 30.1619 134.984 30.1419 135.042 30.1196C134.984 30.1419 134.925 30.1619 134.867 30.1831ZM117.605 30.0669C117.62 30.0253 117.635 29.9837 117.65 29.9419C117.635 29.9837 117.62 30.0253 117.605 30.0669ZM165.034 29.9741C165.027 29.99 165.021 30.006 165.015 30.022C165.021 30.006 165.027 29.99 165.034 29.9741ZM135.291 30.0171C135.318 30.0052 135.346 29.9941 135.374 29.9819C135.346 29.9941 135.318 30.0052 135.291 30.0171ZM69.0122 29.9263C69.0207 29.859 69.0304 29.7918 69.0376 29.7241C69.0304 29.7918 69.0207 29.859 69.0122 29.9263ZM122.482 29.605C122.487 29.7116 122.494 29.8174 122.502 29.9224C122.494 29.8174 122.487 29.7116 122.482 29.605ZM170.353 29.5562C170.059 29.6315 169.791 29.7297 169.549 29.8521C169.694 29.7786 169.849 29.7142 170.013 29.6577C170.123 29.6201 170.236 29.5863 170.354 29.5562H170.353ZM135.585 29.8814C135.622 29.8639 135.658 29.8476 135.694 29.8296C135.658 29.8476 135.622 29.8639 135.585 29.8814ZM142.059 29.523C142.068 29.6194 142.079 29.715 142.09 29.8101C142.079 29.715 142.068 29.6194 142.059 29.523ZM165.149 29.7075C165.133 29.7412 165.119 29.7759 165.104 29.8101C165.119 29.7759 165.133 29.7412 165.149 29.7075ZM135.9 29.7202C135.931 29.7032 135.962 29.6869 135.993 29.6694C135.962 29.6869 135.931 29.7032 135.9 29.7202ZM136.182 29.5562C136.221 29.5318 136.261 29.508 136.299 29.4829C136.261 29.508 136.221 29.5318 136.182 29.5562ZM165.275 29.4624C165.263 29.4846 165.252 29.5074 165.24 29.5298C165.252 29.5074 165.263 29.4846 165.275 29.4624ZM117.792 29.523C117.804 29.4832 117.818 29.4437 117.831 29.4038C117.818 29.4437 117.804 29.4832 117.792 29.523ZM69.061 29.4624C69.067 29.3875 69.0724 29.3123 69.0767 29.2368C69.0724 29.3123 69.067 29.3875 69.061 29.4624ZM122.476 28.4956C122.47 28.6726 122.466 28.8516 122.466 29.0327L122.468 29.2837C122.469 29.3347 122.473 29.3854 122.475 29.4361C122.471 29.3029 122.467 29.1684 122.467 29.0327C122.467 28.8456 122.47 28.6607 122.477 28.478L122.476 28.4956ZM171.527 29.3862H171.528H171.527ZM136.434 29.3902C136.48 29.3582 136.526 29.3265 136.571 29.2935C136.526 29.3265 136.48 29.3582 136.434 29.3902ZM142.024 29.0044C142.029 29.1136 142.035 29.222 142.043 29.3296C142.035 29.222 142.029 29.1136 142.024 29.0044ZM165.421 29.2153C165.41 29.2333 165.399 29.2519 165.388 29.27C165.399 29.2519 165.41 29.2333 165.421 29.2153ZM136.705 29.1909C136.744 29.1602 136.783 29.1298 136.821 29.0982C136.783 29.1298 136.744 29.1602 136.705 29.1909ZM165.586 28.9751C165.565 29.0041 165.545 29.0336 165.524 29.063C165.545 29.0336 165.565 29.0041 165.586 28.9751ZM69.0854 29.0269C69.087 28.9843 69.0913 28.9417 69.0923 28.8989L69.0942 28.688C69.0939 28.8016 69.0895 28.9144 69.0854 29.0269ZM117.947 29.0103C117.96 28.964 117.974 28.918 117.987 28.8716C117.974 28.918 117.96 28.964 117.947 29.0103ZM136.963 28.9732C136.997 28.9434 137.03 28.9138 137.062 28.8833C137.03 28.9138 136.997 28.9434 136.963 28.9732ZM142.012 28.7124C142.013 28.7656 142.017 28.8188 142.019 28.8716C142.014 28.7364 142.01 28.6 142.01 28.4624L142.012 28.7124ZM165.765 28.7486C165.74 28.7782 165.716 28.8082 165.692 28.8384C165.716 28.8082 165.74 28.7782 165.765 28.7486ZM137.199 28.7486C137.227 28.7197 137.255 28.691 137.283 28.6616C137.255 28.691 137.227 28.7197 137.199 28.7486ZM165.953 28.5386C165.932 28.5607 165.912 28.5835 165.891 28.606C165.912 28.5835 165.932 28.5607 165.953 28.5386ZM50.1372 28.1919C50.1317 28.3162 50.1304 28.4412 50.1294 28.5669C50.1305 28.431 50.1328 28.2959 50.1392 28.1616L50.1372 28.1919ZM84.3354 28.4624C84.3773 28.4807 84.4178 28.5009 84.4585 28.52C84.4177 28.5009 84.3774 28.4798 84.3354 28.4614C84.1772 28.3923 83.9991 28.3206 83.8022 28.2437C83.9992 28.3207 84.1771 28.3933 84.3354 28.4624ZM137.409 28.52C137.438 28.4865 137.468 28.4537 137.496 28.4194C137.468 28.4537 137.438 28.4865 137.409 28.52ZM118.084 28.4956C118.102 28.4242 118.12 28.3527 118.137 28.2808C118.12 28.3527 118.102 28.4242 118.084 28.4956ZM166.164 28.3306C166.139 28.3538 166.114 28.3772 166.089 28.4009C166.114 28.3772 166.139 28.3538 166.164 28.3306ZM137.607 28.2759C137.633 28.2422 137.658 28.2087 137.683 28.1743C137.658 28.2087 137.633 28.2422 137.607 28.2759ZM166.394 28.1294C166.361 28.1562 166.33 28.1841 166.298 28.2114C166.33 28.1841 166.361 28.1562 166.394 28.1294ZM83.6157 28.1724C83.4643 28.1148 83.3031 28.0544 83.1313 27.9927C83.3031 28.0544 83.4643 28.1148 83.6157 28.1724ZM50.1714 27.6997C50.1578 27.8456 50.1474 27.9924 50.1401 28.1402C50.1474 27.9924 50.1578 27.8455 50.1714 27.6997ZM166.58 27.9829C166.562 27.996 166.545 28.0098 166.528 28.023C166.576 27.9862 166.624 27.9491 166.673 27.9136L166.58 27.9829ZM137.804 27.9986C137.822 27.9714 137.84 27.9441 137.857 27.9165C137.84 27.9441 137.822 27.9714 137.804 27.9986ZM118.213 27.937C118.225 27.8802 118.237 27.8232 118.249 27.7661C118.237 27.8232 118.225 27.8802 118.213 27.937ZM82.9077 27.9136C82.6684 27.8293 82.4114 27.7405 82.1362 27.6489C82.4114 27.7405 82.6683 27.8293 82.9077 27.9136ZM132.052 27.8433C132.169 27.8292 132.281 27.816 132.39 27.7984C132.281 27.816 132.169 27.8292 132.052 27.8433ZM122.558 27.4126C122.543 27.5451 122.531 27.6789 122.519 27.814C122.531 27.6789 122.543 27.5451 122.558 27.4126ZM137.977 27.7144C137.991 27.6887 138.006 27.6632 138.02 27.6372C138.006 27.6632 137.991 27.6887 137.977 27.7144ZM50.2261 27.2378C50.212 27.3369 50.201 27.4366 50.1899 27.5366C50.201 27.4366 50.212 27.3369 50.2261 27.2378ZM138.116 27.4497C138.133 27.4151 138.149 27.3804 138.166 27.3452C138.149 27.3804 138.133 27.4151 138.116 27.4497ZM134.286 27.0191C134.232 27.0711 134.177 27.1217 134.118 27.1685C134.008 27.2516 133.883 27.3275 133.745 27.397C133.883 27.3274 134.009 27.2517 134.119 27.1685C134.177 27.1218 134.232 27.071 134.286 27.0191ZM168.09 27.1284C167.894 27.2105 167.703 27.3001 167.517 27.397C167.702 27.3003 167.893 27.2113 168.089 27.1294L168.09 27.1284ZM118.328 27.3472C118.337 27.2929 118.347 27.2386 118.356 27.1841C118.347 27.2386 118.337 27.2929 118.328 27.3472ZM122.626 26.9116C122.611 27.0098 122.599 27.1089 122.585 27.2085C122.599 27.1089 122.611 27.0098 122.626 26.9116ZM138.243 27.1685C138.259 27.1291 138.275 27.0894 138.291 27.0493C138.275 27.0894 138.259 27.1291 138.243 27.1685ZM50.3062 26.7622C50.2869 26.8616 50.2705 26.9617 50.2544 27.062C50.2705 26.9617 50.2869 26.8616 50.3062 26.7622ZM138.355 26.8726C138.371 26.8256 138.388 26.7787 138.404 26.731C138.388 26.7787 138.371 26.8256 138.355 26.8726ZM118.416 26.8003C118.426 26.7269 118.437 26.6535 118.447 26.5796C118.437 26.6535 118.426 26.7269 118.416 26.8003ZM78.645 26.5601V26.5591V26.5601ZM134.542 26.7251C134.565 26.693 134.588 26.6601 134.61 26.6265C134.588 26.6601 134.565 26.693 134.542 26.7251ZM171.854 26.4458C172.289 26.4458 172.736 26.4737 173.193 26.5308C172.736 26.4737 172.289 26.4458 171.854 26.4458ZM114.772 26.6284C114.784 26.5498 114.796 26.4707 114.807 26.3911C114.796 26.4707 114.784 26.5498 114.772 26.6284ZM122.714 26.4253C122.702 26.4871 122.692 26.5495 122.68 26.6118C122.692 26.5495 122.702 26.4871 122.714 26.4253ZM180.416 25.7788C180.436 26.0438 180.447 26.3171 180.447 26.5982L180.44 26.189C180.435 26.0501 180.426 25.9135 180.416 25.7788ZM50.3999 26.3325C50.3791 26.4183 50.3607 26.5048 50.3423 26.5913C50.3607 26.5048 50.3791 26.4183 50.3999 26.3325ZM138.457 26.5562C138.47 26.5106 138.483 26.4648 138.495 26.4185C138.483 26.4648 138.47 26.5106 138.457 26.5562ZM114.815 26.3325C114.83 26.2244 114.844 26.1154 114.857 26.0054C114.844 26.1154 114.83 26.2244 114.815 26.3325ZM122.828 25.9253C122.803 26.0217 122.782 26.1193 122.76 26.2173C122.782 26.1193 122.803 26.0217 122.828 25.9253ZM138.545 26.2066C138.554 26.168 138.564 26.1294 138.572 26.0903C138.564 26.1294 138.554 26.168 138.545 26.2066ZM118.498 26.1519C118.503 26.1048 118.507 26.0576 118.512 26.0103C118.507 26.0576 118.503 26.1048 118.498 26.1519ZM50.5239 25.8755C50.4979 25.9629 50.4741 26.051 50.4507 26.1392C50.4741 26.051 50.4979 25.9629 50.5239 25.8755ZM114.865 25.9243C114.877 25.8136 114.889 25.702 114.899 25.5894C114.889 25.702 114.877 25.8136 114.865 25.9243ZM138.616 25.8521C138.624 25.8055 138.631 25.7587 138.638 25.7114C138.631 25.7587 138.624 25.8055 138.616 25.8521ZM77.0581 25.7232C77.0797 25.7414 77.1036 25.7583 77.1274 25.7769C77.1035 25.7582 77.0798 25.7405 77.0581 25.7222C77.0217 25.6864 76.9856 25.6489 76.9507 25.6089C76.9858 25.649 77.0216 25.6873 77.0581 25.7232ZM122.958 25.4546C122.926 25.5583 122.898 25.6634 122.87 25.7691C122.898 25.6634 122.926 25.5583 122.958 25.4546ZM50.6636 25.4478C50.6329 25.535 50.6027 25.6224 50.5747 25.7105C50.6027 25.6224 50.6329 25.535 50.6636 25.4478ZM135.016 25.6284C135.019 25.6138 135.024 25.5993 135.027 25.5845L135.036 25.5376C135.03 25.5682 135.023 25.5984 135.016 25.6284ZM180.401 25.6206C180.393 25.5381 180.385 25.4564 180.375 25.3755C180.385 25.4564 180.393 25.5381 180.401 25.6206ZM118.553 25.5493C118.556 25.512 118.558 25.4745 118.561 25.437C118.558 25.4745 118.556 25.512 118.553 25.5493ZM138.665 25.5093C138.67 25.4649 138.676 25.4204 138.68 25.3755C138.676 25.4204 138.67 25.4649 138.665 25.5093ZM135.09 25.1792C135.079 25.2795 135.064 25.3767 135.047 25.4712C135.064 25.3767 135.079 25.2795 135.09 25.1792ZM114.969 24.3247C114.961 24.7148 114.939 25.095 114.909 25.4653C114.952 24.949 114.975 24.4136 114.975 23.8589L114.969 24.3247ZM123.096 25.0269C123.066 25.1135 123.038 25.2015 123.01 25.2896C123.038 25.2015 123.066 25.1135 123.096 25.0269ZM50.7739 25.1431C50.7583 25.1829 50.745 25.2241 50.73 25.2642C50.7726 25.1504 50.8156 25.0367 50.8628 24.9243V24.9234L50.7739 25.1431ZM180.36 25.2642C180.348 25.1767 180.337 25.09 180.323 25.0044C180.337 25.09 180.348 25.1767 180.36 25.2642ZM142.688 24.8286H142.687H142.688ZM138.703 25.1128C138.705 25.0804 138.707 25.0478 138.708 25.0152C138.707 25.0478 138.705 25.0804 138.703 25.1128ZM64.5171 24.8013H64.5161H64.5171ZM118.586 25.0142C118.59 24.9434 118.593 24.8725 118.596 24.8013C118.593 24.8725 118.59 24.9434 118.586 25.0142ZM123.268 24.5747C123.239 24.6454 123.212 24.7169 123.185 24.7886C123.212 24.7169 123.239 24.6454 123.268 24.5747ZM138.719 24.7632C138.72 24.7431 138.722 24.7229 138.722 24.7027L138.723 24.5747C138.723 24.638 138.721 24.7008 138.719 24.7632ZM180.277 24.7525C180.269 24.7149 180.263 24.6773 180.255 24.6402C180.263 24.6773 180.269 24.7149 180.277 24.7525ZM72.9556 24.315H72.9546H72.9556ZM135.11 24.2583H135.111H135.11ZM180.213 24.4624C180.199 24.4024 180.186 24.3426 180.17 24.2837C180.186 24.3426 180.199 24.4024 180.213 24.4624ZM118.608 24.3911C118.609 24.3584 118.61 24.3253 118.611 24.2925L118.614 23.9732L118.608 24.3911ZM123.456 24.145C123.421 24.2191 123.389 24.2943 123.356 24.3696C123.389 24.2944 123.421 24.2191 123.456 24.145ZM180.134 24.1558C180.112 24.0768 180.09 23.9985 180.065 23.9214C180.09 23.9985 180.112 24.0768 180.134 24.1558ZM62.6274 23.0835C62.8001 23.1755 62.9654 23.2755 63.1235 23.3833C63.3605 23.5449 63.5813 23.7242 63.7856 23.9214H63.7866C63.4458 23.5924 63.0591 23.3134 62.6274 23.0835ZM175.935 23.9077C175.988 23.9631 176.039 24.0204 176.088 24.0796C176.039 24.0204 175.988 23.9631 175.935 23.9077ZM123.67 23.7134C123.622 23.805 123.576 23.8981 123.53 23.9917C123.576 23.8981 123.622 23.805 123.67 23.7134ZM134.776 23.3071C134.846 23.4071 134.905 23.5141 134.954 23.6284C134.97 23.6664 134.985 23.7051 134.999 23.7446H135C134.93 23.5464 134.831 23.3681 134.704 23.2095L134.776 23.3071ZM180.021 23.7925C179.999 23.7291 179.978 23.666 179.955 23.604C179.978 23.666 179.999 23.7292 180.021 23.7925ZM144.719 21.8423H144.72H144.719ZM123.881 23.3374C123.835 23.4147 123.791 23.493 123.748 23.5718C123.791 23.493 123.835 23.4147 123.881 23.3374ZM179.889 23.4409C179.869 23.3911 179.848 23.3415 179.827 23.2925C179.848 23.3415 179.869 23.3911 179.889 23.4409ZM174.74 23.1069C174.828 23.1434 174.914 23.1825 174.998 23.2241C174.914 23.1825 174.828 23.1435 174.74 23.1069ZM179.759 23.146C179.734 23.0914 179.707 23.0373 179.68 22.9839C179.707 23.0373 179.734 23.0914 179.759 23.146ZM124.129 22.9458C124.088 23.0088 124.047 23.0723 124.006 23.1362C124.047 23.0723 124.088 23.0088 124.129 22.9458ZM134.003 22.6509C134.083 22.6953 134.16 22.7428 134.234 22.7935C134.271 22.8173 134.307 22.8413 134.342 22.8667C134.308 22.8415 134.272 22.8171 134.235 22.7935C134.086 22.6919 133.927 22.603 133.757 22.5269L134.003 22.6509ZM179.613 22.856C179.581 22.7964 179.548 22.7373 179.514 22.6792C179.548 22.7373 179.581 22.7964 179.613 22.856ZM124.414 22.5415C124.354 22.6214 124.296 22.7021 124.239 22.7837C124.296 22.7021 124.354 22.6214 124.414 22.5415ZM179.441 22.5601C179.408 22.5064 179.374 22.4532 179.339 22.4009C179.374 22.4532 179.408 22.5064 179.441 22.5601ZM124.691 22.189C124.633 22.2587 124.577 22.3297 124.522 22.4009C124.577 22.3297 124.633 22.2587 124.691 22.189ZM152.015 22.3716C151.961 22.3668 151.907 22.3617 151.852 22.3579L151.833 22.3569C151.894 22.361 151.955 22.3663 152.015 22.3716ZM179.266 22.2944C179.229 22.242 179.192 22.1902 179.154 22.1392C179.192 22.1902 179.229 22.242 179.266 22.2944ZM131.95 22.1851C132.298 22.1851 132.623 22.213 132.924 22.27C132.623 22.2131 132.299 22.1851 131.951 22.1851H131.95ZM129.042 19.439C128.255 19.6362 127.53 19.929 126.866 20.3169C126.733 20.3945 126.603 20.4759 126.475 20.5611C126.22 20.7314 125.974 20.9168 125.738 21.1177C125.62 21.2183 125.504 21.3229 125.391 21.4312C125.278 21.5391 125.168 21.6506 125.06 21.7661L124.901 21.9419C124.873 21.9737 124.846 22.0065 124.818 22.0386C124.897 21.9469 124.977 21.8552 125.06 21.7661C126.141 20.6091 127.468 19.8333 129.042 19.439ZM179.062 22.02C179.024 21.9722 178.985 21.925 178.946 21.8784C178.985 21.925 179.024 21.9722 179.062 22.02ZM53.2017 21.604C53.0905 21.7058 52.9818 21.8108 52.8755 21.9185L53.2026 21.604C53.3139 21.5022 53.4273 21.403 53.5435 21.3071L53.2017 21.604ZM178.846 21.7652C178.805 21.7189 178.762 21.6734 178.719 21.6284C178.762 21.6734 178.805 21.7189 178.846 21.7652ZM178.434 21.3482C178.502 21.4101 178.568 21.4749 178.632 21.5396C178.607 21.5146 178.584 21.488 178.558 21.4634L178.434 21.3482C178.351 21.2728 178.266 21.2001 178.178 21.1294C178.266 21.2 178.351 21.2729 178.434 21.3482ZM178.149 21.1069C178.074 21.047 177.998 20.9877 177.919 20.9312C177.998 20.9877 178.074 21.047 178.149 21.1069ZM59.1206 19.1528C58.3101 19.1925 57.5298 19.3311 56.7798 19.5689C56.6299 19.6164 56.481 19.6677 56.3335 19.7232C56.1861 19.7786 56.04 19.8385 55.895 19.9019C55.7498 19.9621 55.6066 20.0251 55.4663 20.0913C55.3261 20.1575 55.1886 20.2273 55.0532 20.2993C54.6467 20.5158 54.2619 20.7589 53.8989 21.0288L54.269 20.7681C54.7724 20.4319 55.3142 20.1429 55.895 19.9019C56.9109 19.4581 57.9862 19.2084 59.1206 19.1528ZM177.823 20.8648C177.761 20.8223 177.7 20.7802 177.636 20.7398C177.7 20.7802 177.761 20.8223 177.823 20.8648ZM74.9897 20.6343C74.917 20.6804 74.8449 20.7279 74.7739 20.7769C74.8496 20.7247 74.9267 20.6745 75.0044 20.6255L74.9897 20.6343ZM63.2886 19.9019C63.7241 20.0826 64.1378 20.2907 64.5298 20.5249C64.6601 20.6028 64.7881 20.6833 64.9136 20.7671C64.788 20.6832 64.6602 20.6019 64.5298 20.5239C64.2684 20.3677 63.9971 20.2237 63.7163 20.0913C63.5762 20.0252 63.4335 19.962 63.2886 19.9019C63.1476 19.8389 63.0046 19.7803 62.8608 19.7251C63.0047 19.7803 63.1475 19.8388 63.2886 19.9019ZM177.542 20.6821C177.475 20.6409 177.408 20.6001 177.338 20.5611C177.408 20.6001 177.475 20.6409 177.542 20.6821ZM177.265 20.521C177.185 20.477 177.103 20.4332 177.02 20.3921C177.103 20.4332 177.185 20.477 177.265 20.521ZM176.968 20.3677C176.889 20.3296 176.809 20.2929 176.728 20.2573C176.809 20.2929 176.889 20.3296 176.968 20.3677ZM75.7231 20.2319C75.6669 20.2583 75.6115 20.2861 75.5562 20.314C75.6115 20.2861 75.6669 20.2583 75.7231 20.2319ZM75.9507 20.1304C75.8905 20.156 75.8312 20.1832 75.772 20.2105C75.8312 20.1832 75.8905 20.156 75.9507 20.1304ZM176.596 20.2017C176.534 20.176 176.471 20.1507 176.408 20.1265C176.471 20.1507 176.534 20.176 176.596 20.2017ZM76.2231 20.022C76.1668 20.0432 76.1107 20.0649 76.0552 20.0874C76.1107 20.0649 76.1668 20.0432 76.2231 20.022ZM176.262 20.0718C176.195 20.0476 176.126 20.025 176.057 20.0025C176.126 20.025 176.195 20.0476 176.262 20.0718ZM76.4692 19.9341C76.4131 19.9529 76.3576 19.9726 76.3022 19.9927C76.3576 19.9726 76.4131 19.9529 76.4692 19.9341ZM175.923 19.9595C175.84 19.934 175.756 19.9105 175.671 19.8872C175.756 19.9105 175.84 19.934 175.923 19.9595ZM155.049 19.9536C155.011 19.9365 154.973 19.9185 154.935 19.9019C154.973 19.9185 155.011 19.9365 155.049 19.9536ZM154.838 19.8618C154.779 19.8368 154.72 19.8114 154.66 19.7876C154.72 19.8114 154.779 19.8368 154.838 19.8618ZM175.581 19.8618C175.49 19.838 175.398 19.8158 175.304 19.7944C175.397 19.8158 175.49 19.838 175.581 19.8618ZM76.9976 19.7798C76.9507 19.7917 76.9042 19.8042 76.8579 19.8169C76.9042 19.8042 76.9507 19.7917 76.9976 19.7798ZM175.194 19.77C175.121 19.7542 175.047 19.7394 174.972 19.7251C175.047 19.7394 175.121 19.7542 175.194 19.77ZM154.592 19.7622C154.527 19.7371 154.462 19.7126 154.397 19.689C154.462 19.7126 154.527 19.7371 154.592 19.7622ZM77.3169 19.7056C77.246 19.7204 77.1757 19.7359 77.106 19.7525C77.1757 19.7359 77.246 19.7204 77.3169 19.7056ZM77.564 19.6577C77.4981 19.6694 77.4326 19.6817 77.3677 19.6948C77.4326 19.6817 77.4981 19.6694 77.564 19.6577ZM174.778 19.689C174.711 19.6776 174.644 19.6679 174.577 19.6577C174.644 19.6679 174.711 19.6776 174.778 19.689ZM62.7349 19.6802C62.6434 19.6467 62.5521 19.6129 62.4595 19.5825C62.5521 19.6129 62.6434 19.6467 62.7349 19.6802ZM154.308 19.6577C154.26 19.6409 154.212 19.6239 154.164 19.6079C154.212 19.6239 154.26 19.6409 154.308 19.6577ZM174.405 19.6323C174.29 19.6168 174.173 19.6036 174.054 19.5913C174.173 19.6036 174.29 19.6168 174.405 19.6323ZM174.005 19.5855C173.88 19.573 173.753 19.563 173.625 19.5542C173.753 19.563 173.88 19.573 174.005 19.5855ZM78.4585 19.5484C78.3887 19.5534 78.3193 19.5584 78.2505 19.565C78.3193 19.5584 78.3887 19.5534 78.4585 19.5484ZM154.012 19.5591C153.97 19.5459 153.928 19.5336 153.885 19.521C153.928 19.5335 153.97 19.5459 154.012 19.5591ZM173.129 19.5288C173.279 19.5335 173.426 19.5401 173.571 19.5493C173.426 19.5401 173.279 19.5335 173.129 19.5288ZM62.2319 19.5142C62.1585 19.4924 62.0853 19.4696 62.0112 19.4497C62.0853 19.4696 62.1585 19.4924 62.2319 19.5142ZM153.747 19.481C153.706 19.4696 153.665 19.4585 153.625 19.4478C153.665 19.4585 153.706 19.4696 153.747 19.481ZM153.482 19.4107C153.436 19.3993 153.39 19.3891 153.343 19.3784C153.39 19.3891 153.436 19.3993 153.482 19.4107ZM61.8306 19.4048C61.7447 19.3837 61.6586 19.3628 61.5718 19.3443C61.6586 19.3628 61.7447 19.3837 61.8306 19.4048ZM153.197 19.3462C153.147 19.3356 153.097 19.3257 153.046 19.3159C153.097 19.3257 153.147 19.3356 153.197 19.3462ZM61.396 19.3091C61.2982 19.2903 61.2 19.272 61.1011 19.2564C61.2 19.272 61.2982 19.2903 61.396 19.3091ZM152.946 19.2964C152.893 19.2867 152.84 19.2769 152.787 19.2681C152.84 19.2769 152.893 19.2867 152.946 19.2964ZM60.9419 19.2339C60.8492 19.221 60.7562 19.2089 60.6626 19.1987C60.7562 19.2089 60.8493 19.221 60.9419 19.2339ZM152.386 19.2105C152.327 19.2033 152.268 19.197 152.208 19.1909C152.268 19.197 152.327 19.2033 152.386 19.2105ZM60.4614 19.1792C60.3739 19.1716 60.2861 19.1649 60.1978 19.1597C60.2861 19.1649 60.3739 19.1716 60.4614 19.1792ZM59.9819 19.1499C59.9401 19.1484 59.8979 19.1451 59.856 19.1441L59.6108 19.1411C59.7353 19.1411 59.8591 19.1454 59.9819 19.1499Z" fill="#7332F1"/>
</g>
</g>
</g>
<defs>
<filter id="filter0_d_91_219" x="2.60861" y="3" width="180.783" height="48.7823" filterUnits="userSpaceOnUse" color-interpolation-filters="sRGB">
<feFlood flood-opacity="0" result="BackgroundImageFix"/>
<feColorMatrix in="SourceAlpha" type="matrix" values="0 0 0 0 0 0 0 0 0 0 0 0 0 0 0 0 0 0 127 0" result="hardAlpha"/>
<feOffset dy="2.39139"/>
<feGaussianBlur stdDeviation="1.19569"/>
<feComposite in2="hardAlpha" operator="out"/>
<feColorMatrix type="matrix" values="0 0 0 0 0.0980392 0 0 0 0 0.0980392 0 0 0 0 0.439216 0 0 0 0.26 0"/>
<feBlend mode="normal" in2="BackgroundImageFix" result="effect1_dropShadow_91_219"/>
<feBlend mode="normal" in="SourceGraphic" in2="effect1_dropShadow_91_219" result="shape"/>
</filter>
<filter id="filter1_di_91_219" x="5" y="6.82143" width="25.7588" height="38.2438" filterUnits="userSpaceOnUse" color-interpolation-filters="sRGB">
<feFlood flood-opacity="0" result="BackgroundImageFix"/>
<feColorMatrix in="SourceAlpha" type="matrix" values="0 0 0 0 0 0 0 0 0 0 0 0 0 0 0 0 0 0 127 0" result="hardAlpha"/>
<feOffset dx="0.597846" dy="0.597846"/>
<feComposite in2="hardAlpha" operator="out"/>
<feColorMatrix type="matrix" values="0 0 0 0 0.435294 0 0 0 0 0.192157 0 0 0 0 0.976471 0 0 0 1 0"/>
<feBlend mode="normal" in2="BackgroundImageFix" result="effect1_dropShadow_91_219"/>
<feBlend mode="normal" in="SourceGraphic" in2="effect1_dropShadow_91_219" result="shape"/>
<feColorMatrix in="SourceAlpha" type="matrix" values="0 0 0 0 0 0 0 0 0 0 0 0 0 0 0 0 0 0 127 0" result="hardAlpha"/>
<feOffset dy="2.39139"/>
<feGaussianBlur stdDeviation="1.19569"/>
<feComposite in2="hardAlpha" operator="arithmetic" k2="-1" k3="1"/>
<feColorMatrix type="matrix" values="0 0 0 0 1 0 0 0 0 1 0 0 0 0 1 0 0 0 0.2 0"/>
<feBlend mode="normal" in2="shape" result="effect2_innerShadow_91_219"/>
</filter>
<filter id="filter2_di_91_219" x="28.7783" y="3" width="9.99863" height="12.4457" filterUnits="userSpaceOnUse" color-interpolation-filters="sRGB">
<feFlood flood-opacity="0" result="BackgroundImageFix"/>
<feColorMatrix in="SourceAlpha" type="matrix" values="0 0 0 0 0 0 0 0 0 0 0 0 0 0 0 0 0 0 127 0" result="hardAlpha"/>
<feOffset dx="0.597846" dy="0.597846"/>
<feComposite in2="hardAlpha" operator="out"/>
<feColorMatrix type="matrix" values="0 0 0 0 0.435294 0 0 0 0 0.192157 0 0 0 0 0.976471 0 0 0 1 0"/>
<feBlend mode="normal" in2="BackgroundImageFix" result="effect1_dropShadow_91_219"/>
<feBlend mode="normal" in="SourceGraphic" in2="effect1_dropShadow_91_219" result="shape"/>
<feColorMatrix in="SourceAlpha" type="matrix" values="0 0 0 0 0 0 0 0 0 0 0 0 0 0 0 0 0 0 127 0" result="hardAlpha"/>
<feOffset dy="2.39139"/>
<feGaussianBlur stdDeviation="1.19569"/>
<feComposite in2="hardAlpha" operator="arithmetic" k2="-1" k3="1"/>
<feColorMatrix type="matrix" values="0 0 0 0 1 0 0 0 0 1 0 0 0 0 1 0 0 0 0.2 0"/>
<feBlend mode="normal" in2="shape" result="effect2_innerShadow_91_219"/>
</filter>
<filter id="filter3_di_91_219" x="13.0181" y="15.2282" width="20.8703" height="21.7618" filterUnits="userSpaceOnUse" color-interpolation-filters="sRGB">
<feFlood flood-opacity="0" result="BackgroundImageFix"/>
<feColorMatrix in="SourceAlpha" type="matrix" values="0 0 0 0 0 0 0 0 0 0 0 0 0 0 0 0 0 0 127 0" result="hardAlpha"/>
<feOffset dx="0.597846" dy="0.597846"/>
<feComposite in2="hardAlpha" operator="out"/>
<feColorMatrix type="matrix" values="0 0 0 0 0.972549 0 0 0 0 0.4 0 0 0 0 0.129412 0 0 0 1 0"/>
<feBlend mode="normal" in2="BackgroundImageFix" result="effect1_dropShadow_91_219"/>
<feBlend mode="normal" in="SourceGraphic" in2="effect1_dropShadow_91_219" result="shape"/>
<feColorMatrix in="SourceAlpha" type="matrix" values="0 0 0 0 0 0 0 0 0 0 0 0 0 0 0 0 0 0 127 0" result="hardAlpha"/>
<feOffset dy="2.39139"/>
<feGaussianBlur stdDeviation="1.19569"/>
<feComposite in2="hardAlpha" operator="arithmetic" k2="-1" k3="1"/>
<feColorMatrix type="matrix" values="0 0 0 0 0.968627 0 0 0 0 0.4 0 0 0 0 0.133333 0 0 0 0.2 0"/>
<feBlend mode="normal" in2="shape" result="effect2_innerShadow_91_219"/>
</filter>
<filter id="filter4_di_91_219" x="40.8892" y="10.6089" width="140.709" height="38.782" filterUnits="userSpaceOnUse" color-interpolation-filters="sRGB">
<feFlood flood-opacity="0" result="BackgroundImageFix"/>
<feColorMatrix in="SourceAlpha" type="matrix" values="0 0 0 0 0 0 0 0 0 0 0 0 0 0 0 0 0 0 127 0" result="hardAlpha"/>
<feOffset dx="0.597846" dy="0.597846"/>
<feComposite in2="hardAlpha" operator="out"/>
<feColorMatrix type="matrix" values="0 0 0 0 0.972549 0 0 0 0 0.4 0 0 0 0 0.129412 0 0 0 1 0"/>
<feBlend mode="normal" in2="BackgroundImageFix" result="effect1_dropShadow_91_219"/>
<feBlend mode="normal" in="SourceGraphic" in2="effect1_dropShadow_91_219" result="shape"/>
<feColorMatrix in="SourceAlpha" type="matrix" values="0 0 0 0 0 0 0 0 0 0 0 0 0 0 0 0 0 0 127 0" result="hardAlpha"/>
<feOffset dy="2.39139"/>
<feGaussianBlur stdDeviation="1.19569"/>
<feComposite in2="hardAlpha" operator="arithmetic" k2="-1" k3="1"/>
<feColorMatrix type="matrix" values="0 0 0 0 0.968627 0 0 0 0 0.4 0 0 0 0 0.133333 0 0 0 0.2 0"/>
<feBlend mode="normal" in2="shape" result="effect2_innerShadow_91_219"/>
</filter>
<clipPath id="clip0_91_219">
<rect width="186" height="50" fill="white"/>
</clipPath>
</defs>
</svg>
