<?xml version="1.0" encoding="utf-8"?>
<!-- Generator: Adobe Illustrator 24.2.1, SVG Export Plug-In . SVG Version: 6.00 Build 0)  -->
<svg version="1.1" id="Layer_1" xmlns="http://www.w3.org/2000/svg" xmlns:xlink="http://www.w3.org/1999/xlink" x="0px" y="0px"
	 viewBox="0 0 876.8 438.2" style="enable-background:new 0 0 876.8 438.2;" xml:space="preserve">
<style type="text/css">
	.st0{fill:#EE3B24;}
	.st1{fill:url(#SVGID_1_);}
	.st2{fill:url(#SVGID_2_);}
	.st3{fill:url(#SVGID_3_);}
	.st4{fill:none;stroke:#000000;stroke-width:0;stroke-linecap:round;stroke-linejoin:round;}
	.st5{fill:none;}
</style>
<g>
	<rect x="422.5" y="205.2" width="13.5" height="97.8"/>
	<rect x="442.4" y="205.2" width="13.5" height="97.8"/>
	<g>
		<path d="M314.3,319.6c1.5,0.2,13.6-14.8,13.5-24.3c0-14.9-0.4-29.7,0.2-44.6c0.9-20.9,17.4-35.8,38.4-35.5
			c19.6,0.3,35.9,16.6,36.3,36.3c0.4,20-15.1,37-34.6,38.3c-2.9,0.2-6.9-1.7-8.5,0.8c-1.4,2.2,0.3,12.6,3,12.7
			c19.3,0.8,34.4-7.1,45.2-22.8c10.9-15.8,11.8-33,3.5-50c-8.5-17.4-22.8-27.6-42.6-28.8c-27.6-1.6-50.6,17.6-53.8,45.1
			c-1.1,9.4-0.4,18.9-0.4,28.3C314.2,290,314.3,304.7,314.3,319.6z"/>
		<path d="M350,277.2c0-5.5,0-9.4,0-13.3c0-4.1-0.1-8.1,0.1-12.2c0.6-9.6,9.5-16.1,18.6-14c7.1,1.7,12,8.4,11.8,16.2
			c-0.2,7.1-5.5,12.3-13.3,14c-2.8,0.6-6.4-2.2-7.8,0.7c-1.2,2.5,0.6,12.7,3.1,13c13.3,1.4,26.7-7.1,30.5-19.9
			c3.5-11.9,0.7-22.4-8.6-30.7c-9-8-19.6-9.6-30.5-4.9c-11.3,5-17.4,14.1-17.5,26.7c-0.1,14.5,0,29-0.1,43.5
			c-0.1,12.2-4.6,22.9-14.8,29.3c-6.7,4.3-7.2,16.1-7.2,16.2c-0.4,2.7,0.8,2.8,2.9,1.9c16.5-7.1,27.4-19.2,31.6-36.8
			C351.3,296.6,349.6,286,350,277.2z"/>
	</g>
	<path d="M466.9,319.6c1.5,0.2,13.6-14.8,13.5-24.3c0-14.9-0.4-29.7,0.2-44.6c0.9-20.9,17.4-35.8,38.4-35.5
		c19.6,0.3,35.9,16.6,36.3,36.3c0.4,20-15.1,37-34.6,38.3c-2.9,0.2-6.9-1.7-8.5,0.8c-1.4,2.2,0.3,12.6,3,12.7
		c19.3,0.8,34.4-7.1,45.2-22.8c10.9-15.8,11.8-33,3.5-50c-8.5-17.4-22.8-27.6-42.6-28.8c-27.6-1.6-50.6,17.6-53.8,45.1
		c-1.1,9.4-0.4,18.9-0.4,28.3C466.8,290,466.9,304.7,466.9,319.6z"/>
	<g>
		<g>
			<rect x="438" y="189.7" class="st0" width="1.7" height="135.2"/>
		</g>
		<g>
			<rect x="430.3" y="227.5" class="st0" width="17" height="59.5"/>
		</g>
	</g>
	<linearGradient id="SVGID_1_" gradientUnits="userSpaceOnUse" x1="428.64" y1="54.2315" x2="445.3099" y2="372.3132">
		<stop  offset="0" style="stop-color:#6456A4"/>
		<stop  offset="0.1019" style="stop-color:#6955A3"/>
		<stop  offset="0.23" style="stop-color:#7952A1"/>
		<stop  offset="0.3719" style="stop-color:#934C9E"/>
		<stop  offset="0.5229" style="stop-color:#B6459A"/>
		<stop  offset="0.6508" style="stop-color:#DA3D95"/>
		<stop  offset="0.6863" style="stop-color:#DB3E7C"/>
		<stop  offset="0.7409" style="stop-color:#DD3F5D"/>
		<stop  offset="0.798" style="stop-color:#DE3F45"/>
		<stop  offset="0.8579" style="stop-color:#DF4034"/>
		<stop  offset="0.9225" style="stop-color:#E04029"/>
		<stop  offset="1" style="stop-color:#E04026"/>
	</linearGradient>
	<path class="st1" d="M601.7,327c0-3.2,0-5.4,0-7.6c0-30.6-0.1-61.3,0.1-91.9c0.1-7.8-2.9-13.5-8.9-18.1
		c-12.5-9.3-27-13.9-41.8-17.5c-42.1-10.4-84.9-12.9-128.1-11.9c-31.6,0.7-63.1,3.7-93.9,11c-13,3.1-25.7,7-37.5,13.3
		c-11.1,5.9-17.2,13.8-16.8,27.7c0.9,29.5,0.3,59,0.3,88.5c0,1.8,0,3.7,0,6.5c-11.9-6.9-22.7-14.1-34.2-19.7
		c-8.5-4.1-10.6-9.5-10.4-18.6c0.6-35.2,0.2-70.4,0.3-105.6c0-3.4,0.3-6.8-4.5-6.9c-4.3,0-6.7,2.4-7.3,6.5c-0.3,2.1,0,4.2,0,6.3
		c0,38.3-0.1,76.5-0.1,114.8c0,4,0,7.7,2.8,11.2c3,3.8,2.3,8.6-1,12.1c-2.3,2.4-2.1,4.5-1.4,7.2c3.6,13.4,6.9,26.9,10.7,40.2
		c1.1,4,0.1,5.9-3.6,7.3c-9.1,3.4-18.1,3.5-27.3,0.1c-3.8-1.4-5.3-3-4-7.5c3.8-13.3,7.1-26.8,10.7-40.3c0.7-2.8,0.9-4.9-1.5-7.1
		c-3.1-2.9-3.8-7.6-1.6-10.5c4.1-5.5,2.7-11.5,3.5-17.4c1.3-9.3-2.2-14.6-10.6-19.1c-17.2-9-33.6-19.3-50.3-29.2
		c-10.1-5.9-10.1-14-0.1-20.1c18.9-11.7,37.9-23.4,56.9-34.9c3-1.8,4.1-3.8,4.1-7.2c0.1-18.9,2.6-21.8,21.3-19
		c11,1.6,19.5-1.1,28.7-6.8c57.2-35.6,114.7-70.6,172-105.9c7.5-4.6,14.6-3.9,21.9,0.6c55.9,34.4,111.8,68.7,167.7,103.1
		c38.1,23.4,76.2,46.7,114.3,70.2c9.7,6,10,14.3,0.4,19.9C689.3,275.9,646,301.1,601.7,327z"/>
	<linearGradient id="SVGID_2_" gradientUnits="userSpaceOnUse" x1="275.6866" y1="364.5389" x2="604.8298" y2="364.5389">
		<stop  offset="0" style="stop-color:#6456A4"/>
		<stop  offset="0.1019" style="stop-color:#6955A3"/>
		<stop  offset="0.23" style="stop-color:#7952A1"/>
		<stop  offset="0.3719" style="stop-color:#934C9E"/>
		<stop  offset="0.5229" style="stop-color:#B6459A"/>
		<stop  offset="0.6508" style="stop-color:#DA3D95"/>
		<stop  offset="0.6863" style="stop-color:#DB3E7C"/>
		<stop  offset="0.7409" style="stop-color:#DD3F5D"/>
		<stop  offset="0.798" style="stop-color:#DE3F45"/>
		<stop  offset="0.8579" style="stop-color:#DF4034"/>
		<stop  offset="0.9225" style="stop-color:#E04029"/>
		<stop  offset="1" style="stop-color:#E04026"/>
	</linearGradient>
	<path class="st2" d="M440.3,358c69.7,0,130.8,8.2,164.6,20.6c-19.5-16.2-85.8-28.1-164.6-28.1s-145.1,11.9-164.6,28.1
		C309.5,366.2,370.5,358,440.3,358z"/>
	<path d="M520.9,237.6c0.2,0,0.3,0,0.5,0.1c7.1,1.7,12,8.4,11.8,16.2c-0.2,7.1-5.5,12.3-13.3,14c-2.8,0.6-6.4-2.2-7.8,0.7
		c-1.2,2.5,0.6,12.7,3.1,13c13.3,1.4,26.7-7.1,30.5-19.9c3.5-11.9,0.7-22.4-8.6-30.7c-4.9-4.4-10.4-6.9-16-7.4"/>
	<linearGradient id="SVGID_3_" gradientUnits="userSpaceOnUse" x1="466.8486" y1="283.7369" x2="520.9412" y2="283.7369">
		<stop  offset="0" style="stop-color:#6456A4"/>
		<stop  offset="0.1019" style="stop-color:#6955A3"/>
		<stop  offset="0.23" style="stop-color:#7952A1"/>
		<stop  offset="0.3719" style="stop-color:#934C9E"/>
		<stop  offset="0.5229" style="stop-color:#B6459A"/>
		<stop  offset="0.6508" style="stop-color:#DA3D95"/>
		<stop  offset="0.6863" style="stop-color:#DB3E7C"/>
		<stop  offset="0.7409" style="stop-color:#DD3F5D"/>
		<stop  offset="0.798" style="stop-color:#DE3F45"/>
		<stop  offset="0.8579" style="stop-color:#DF4034"/>
		<stop  offset="0.9225" style="stop-color:#E04029"/>
		<stop  offset="1" style="stop-color:#E04026"/>
	</linearGradient>
	<path class="st3" d="M520.9,223.5c-4.7-0.5-9.6,0.4-14.5,2.5c-11.3,5-17.4,14.1-17.5,26.7c-0.1,14.5,0,29-0.1,43.5
		c-0.1,12.2-4.6,22.9-14.8,29.3c-6.7,4.3-7.2,16.1-7.2,16.2c-0.4,2.7,0.8,2.8,2.9,1.9c16.5-7.1,27.4-19.2,31.6-36.8
		c2.5-10.3,0.8-20.8,1.2-29.7c0-5.5,0-9.4,0-13.3c0-4.1-0.1-8.1,0.1-12.2c0.6-9.4,9.2-15.9,18.1-14.1"/>
	<line class="st4" x1="520.9" y1="223.5" x2="520.9" y2="237.6"/>
	<path class="st5" d="M520.9,237.6v5.5l-9.8,9.5c0,0-4.1,20.4-3.9,22.8c0.3,2.4,10.1,9.5,10.1,9.5s5.3,2.7,10.7-0.3
		c5.3-3,10.1-5.6,11.9-6.8s5.6-5.3,7.4-9.2c1.8-3.9,3.3-9.5,4.1-12.7c0.9-3.3,2.1-11.6,2.1-13.3s-4.1-11.3-4.4-13.3
		c-0.3-2.1-28.1-12.4-28.1-12.4v6.8"/>
</g>
</svg>
