<svg width="16" height="16" viewBox="0 0 16 16" fill="none" xmlns="http://www.w3.org/2000/svg">
<path d="M8 4H7V10H8V4Z" fill="black"/>
<path d="M9 4H8V10H9V4Z" fill="black"/>
<path d="M0.00460943 10.8346C0.0950339 10.8458 0.824458 10.0056 0.81843 9.47347C0.81843 8.6389 0.794317 7.80993 0.830487 6.97536C0.884742 5.80472 1.87941 4.97015 3.14535 4.98695C4.3269 5.00376 5.30951 5.91674 5.33363 7.02017C5.35774 8.1404 4.42335 9.09259 3.24784 9.16541C3.07302 9.17661 2.83188 9.07019 2.73543 9.21022C2.65103 9.33344 2.75352 9.91596 2.91628 9.92156C4.07974 9.96637 4.99001 9.52388 5.64107 8.6445C6.29815 7.75952 6.35241 6.79612 5.85206 5.84393C5.33965 4.86933 4.47761 4.29801 3.28401 4.2308C1.6202 4.14118 0.233685 5.2166 0.0407796 6.75691C-0.0255317 7.28342 0.0166668 7.81553 0.0166668 8.34204C-0.00141813 9.17661 0.00460943 9.99998 0.00460943 10.8346Z" fill="black"/>
<path d="M2.15671 8.45988C2.15671 8.15182 2.15671 7.93337 2.15671 7.71492C2.15671 7.48528 2.15068 7.26123 2.16274 7.03158C2.19891 6.49387 2.73543 6.1298 3.284 6.24742C3.71201 6.34264 4.0074 6.71792 3.99534 7.15481C3.98329 7.55249 3.66379 7.84375 3.19358 7.93897C3.02479 7.97258 2.80777 7.81575 2.72337 7.97818C2.65103 8.11821 2.75954 8.68952 2.91025 8.70633C3.71201 8.78474 4.5198 8.30865 4.74888 7.5917C4.95987 6.92516 4.79108 6.33704 4.23045 5.87215C3.6879 5.42406 3.0489 5.33444 2.39181 5.59769C1.71062 5.87775 1.34289 6.38745 1.33686 7.0932C1.33083 7.90536 1.33686 8.71753 1.33083 9.5297C1.3248 10.213 1.05353 10.8124 0.438645 11.1708C0.0347494 11.4117 0.00460715 12.0726 0.00460715 12.0782C-0.019506 12.2294 0.052835 12.2351 0.179429 12.1846C1.1741 11.787 1.83118 11.1092 2.08437 10.1234C2.23508 9.5465 2.1326 8.95278 2.15671 8.45988Z" fill="black"/>
<path d="M10.0011 10.9999C10.0889 11.0117 10.7967 10.1219 10.7909 9.5583C10.7909 8.67436 10.7675 7.79636 10.8026 6.91242C10.8552 5.67254 11.8205 4.7886 13.049 4.8064C14.1956 4.8242 15.1491 5.79119 15.1725 6.95988C15.1959 8.14637 14.2892 9.15489 13.1484 9.23201C12.9788 9.24388 12.7448 9.13116 12.6512 9.27947C12.5693 9.40999 12.6687 10.027 12.8267 10.0329C13.9557 10.0804 14.8391 9.61169 15.4709 8.68029C16.1085 7.74297 16.1612 6.72258 15.6756 5.71407C15.1784 4.68182 14.3418 4.07671 13.1835 4.00552C11.5689 3.9106 10.2234 5.04963 10.0362 6.68106C9.97189 7.23871 10.0128 7.80229 10.0128 8.35994C9.99529 9.24388 10.0011 10.1159 10.0011 10.9999Z" fill="black"/>
<path d="M8.17861 3.55859H8.07613V11.1313H8.17861V3.55859Z" fill="#EE3B24"/>
<path d="M8.63675 5.67578H7.61194V9.00846H8.63675V5.67578Z" fill="#EE3B24"/>
<path d="M13.5182 5.96302C13.5295 5.96302 13.5351 5.96302 13.5464 5.9699C13.9471 6.08683 14.2237 6.54771 14.2124 7.08425C14.2011 7.57263 13.902 7.93033 13.4617 8.04726C13.3037 8.08854 13.1005 7.89593 13.0215 8.09541C12.9538 8.26738 13.0554 8.96901 13.1965 8.98965C13.9471 9.08595 14.7035 8.50126 14.9179 7.62078C15.1155 6.80222 14.9574 6.07996 14.4325 5.50902C14.156 5.20636 13.8455 5.03439 13.5295 5" fill="black"/>
<path d="M13 5.00783C12.7397 4.97884 12.4684 5.03102 12.1971 5.15277C11.5713 5.44264 11.2335 5.9702 11.228 6.70067C11.2225 7.54129 11.228 8.38191 11.2225 9.22253C11.2169 9.92982 10.9678 10.5501 10.4029 10.9212C10.0319 11.1705 10.0042 11.8545 10.0042 11.8603C9.98208 12.0169 10.0485 12.0227 10.1648 11.9705C11.0785 11.5589 11.6821 10.8574 11.9147 9.83706C12.0531 9.23993 11.959 8.6312 11.9811 8.11523C11.9811 7.79638 11.9811 7.57028 11.9811 7.34418C11.9811 7.10649 11.9756 6.87459 11.9866 6.6369C12.0199 6.09194 12.4961 5.71511 12.9889 5.81947" fill="url(#paint0_linear_1324_982)"/>
<defs>
<linearGradient id="paint0_linear_1324_982" x1="10.0069" y1="8.5" x2="13.0023" y2="8.5" gradientUnits="userSpaceOnUse">
<stop stop-color="#6456A4"/>
<stop offset="0.1019" stop-color="#6955A3"/>
<stop offset="0.23" stop-color="#7952A1"/>
<stop offset="0.3719" stop-color="#934C9E"/>
<stop offset="0.5229" stop-color="#B6459A"/>
<stop offset="0.6508" stop-color="#DA3D95"/>
<stop offset="0.6863" stop-color="#DB3E7C"/>
<stop offset="0.7409" stop-color="#DD3F5D"/>
<stop offset="0.798" stop-color="#DE3F45"/>
<stop offset="0.8579" stop-color="#DF4034"/>
<stop offset="0.9225" stop-color="#E04029"/>
<stop offset="1" stop-color="#E04026"/>
</linearGradient>
</defs>
</svg>
