<svg width="40" height="42" viewBox="0 0 40 42" fill="none" xmlns="http://www.w3.org/2000/svg">
<path d="M18.6074 38.4644L15.8584 18.0435C15.8584 14.5474 19.3545 15.4214 21.1026 16.2954L36.3981 26.7838C39.76 29.1113 39.6628 30.9445 38.7948 32.0361C38.22 32.7588 37.2342 32.9317 36.3126 32.9893L30.7169 33.339C28.9976 33.6256 27.748 34.5189 27.1125 35.1527C26.8783 35.3863 26.7043 35.6699 26.5459 35.9603L24.1617 40.3313C23.1778 41.9056 21.9631 42.1692 20.9073 41.9169C19.4406 41.5665 18.8085 39.9588 18.6074 38.4644Z" fill="url(#paint0_linear_1901_3272)"/>
<path d="M1 23.7248L8.42927 18.9176M9.3033 12.7994L1 8.42927M14.1105 1V9.3033M22.4138 10.1773L29.406 5.37016" stroke="url(#paint1_linear_1901_3272)" stroke-width="1.89237" stroke-linecap="round"/>
<defs>
<linearGradient id="paint0_linear_1901_3272" x1="15.8584" y1="28.757" x2="35.9577" y2="28.757" gradientUnits="userSpaceOnUse">
<stop stop-color="#6E30F9"/>
<stop offset="1" stop-color="#FE6917"/>
</linearGradient>
<linearGradient id="paint1_linear_1901_3272" x1="1" y1="12.3624" x2="25.348" y2="12.3624" gradientUnits="userSpaceOnUse">
<stop stop-color="#6E30F9"/>
<stop offset="1" stop-color="#FE6917"/>
</linearGradient>
</defs>
</svg>
