<svg width="78" height="84" viewBox="0 0 78 84" fill="none" xmlns="http://www.w3.org/2000/svg">
<path d="M46.3136 5.0869C46.593 4.81181 46.8152 4.48412 46.9673 4.12274C47.1194 3.76135 47.1985 3.37343 47.2 2.98133C47.2014 2.58923 47.1252 2.20073 46.9758 1.83823C46.8263 1.47572 46.6066 1.14639 46.3293 0.869237C46.0519 0.59208 45.7224 0.372578 45.3598 0.223394C44.9972 0.0742099 44.6086 -0.00170466 44.2165 2.90381e-05C43.8245 0.00176274 43.4366 0.0811106 43.0753 0.233496C42.714 0.385881 42.3865 0.608287 42.1116 0.887886L34.874 8.12551L34.8393 8.15917C34.5637 8.43453 34.345 8.7616 34.196 9.12162C34.047 9.48165 33.9706 9.86755 33.971 10.2572C33.9703 10.6555 34.05 11.0499 34.2054 11.4167C34.3607 11.7835 34.5884 12.1151 34.875 12.3918L42.1126 19.6295C42.3876 19.9089 42.7153 20.1312 43.0766 20.2834C43.438 20.4356 43.8259 20.5148 44.218 20.5163C44.6101 20.5179 44.9986 20.4418 45.3611 20.2924C45.7237 20.1431 46.053 19.9234 46.3303 19.6461C46.6075 19.3689 46.8271 19.0394 46.9763 18.6768C47.1256 18.3143 47.2016 17.9257 47.2 17.5336C47.1983 17.1415 47.1191 16.7536 46.9668 16.3923C46.8145 16.031 46.5921 15.7034 46.3126 15.4285L43.9482 13.0641C51.3751 14.2991 58.1469 18.0628 63.1172 23.7178C68.0875 29.3729 70.9508 36.5718 71.2224 44.0958C71.4939 51.6197 69.1569 59.0063 64.6072 65.0049C60.0575 71.0035 53.5745 75.2455 46.256 77.0126C38.9375 78.7798 31.2332 77.9635 24.4474 74.702C17.6617 71.4405 12.2116 65.9342 9.0199 59.1154C5.82818 52.2965 5.09097 44.5842 6.93309 37.2842C8.77522 29.9843 13.0835 23.5452 19.1284 19.0572C19.761 18.5876 20.1811 17.8858 20.2963 17.1065C20.4116 16.3271 20.2124 15.5338 19.7428 14.9013C19.2732 14.2687 18.5715 13.8486 17.7921 13.7334C17.0127 13.6181 16.2194 13.8173 15.5869 14.2869C8.4204 19.6075 3.31982 27.2477 1.15371 35.9065C-1.01241 44.5653 -0.110092 53.7073 3.70697 61.7756C7.52404 69.8438 14.0198 76.3395 22.0882 80.1564C30.1565 83.9734 39.2985 84.8755 47.9572 82.7092C56.616 80.543 64.2561 75.4423 69.5766 68.2757C74.8971 61.1092 77.5689 52.3199 77.137 43.4047C76.7051 34.4896 73.1963 25.9997 67.208 19.381C61.2198 12.7623 53.1224 8.4239 44.2948 7.10472L46.3136 5.0869Z" fill="white"/>
<path d="M30.4003 29.1135C30.4003 25.6452 26.2587 23.8521 23.73 26.2254L18.7022 30.9442C18.4169 31.2109 18.187 31.5313 18.0257 31.887C17.8643 32.2426 17.7747 32.6266 17.7619 33.017C17.7492 33.4073 17.8135 33.7964 17.9513 34.1618C18.0891 34.5273 18.2975 34.862 18.5648 35.1467C18.8321 35.4315 19.1529 35.6608 19.5089 35.8214C19.8649 35.9821 20.249 36.071 20.6394 36.083C21.0298 36.0949 21.4187 36.0298 21.7839 35.8914C22.149 35.7529 22.4833 35.5437 22.7676 35.2759L24.4597 33.6878V61.0719C24.4597 61.8597 24.7726 62.6152 25.3296 63.1723C25.8867 63.7293 26.6422 64.0422 27.43 64.0422C28.2177 64.0422 28.9732 63.7293 29.5303 63.1723C30.0873 62.6152 30.4003 61.8597 30.4003 61.0719V29.1135Z" fill="white"/>
<path fill-rule="evenodd" clip-rule="evenodd" d="M38.1529 36.6225C38.1529 31.0324 42.6846 26.5017 48.2747 26.5017C53.8648 26.5017 58.3955 31.0324 58.3955 36.6225V53.9245C58.3955 59.5136 53.8638 64.0453 48.2747 64.0453C42.6856 64.0453 38.1529 59.5136 38.1529 53.9245V36.6225ZM52.4549 36.6225V53.9245C52.4549 55.0331 52.0145 56.0964 51.2306 56.8803C50.4466 57.6643 49.3834 58.1047 48.2747 58.1047C47.1661 58.1047 46.1028 57.6643 45.3189 56.8803C44.5349 56.0964 44.0945 55.0331 44.0945 53.9245V36.6225C44.0945 35.5138 44.5349 34.4506 45.3189 33.6667C46.1028 32.8827 47.1661 32.4423 48.2747 32.4423C49.3834 32.4423 50.4466 32.8827 51.2306 33.6667C52.0145 34.4506 52.4549 35.5138 52.4549 36.6225Z" fill="white"/>
</svg>
