<svg width="21" height="18" viewBox="0 0 21 18" fill="none" xmlns="http://www.w3.org/2000/svg">
<path fillRule="evenodd" clip-rule="evenodd" d="M20.3529 2.52253C20.3529 1.18117 19.2847 0.030808 17.8832 0.079624C16.8398 0.115971 15.4758 0.224519 14.4265 0.538643C13.5144 0.811708 12.4885 1.34506 11.6887 1.80793C10.9388 2.24194 10.0052 2.26358 9.24547 1.86185C8.33295 1.37933 7.13239 0.807377 6.09078 0.532517C5.21003 0.300106 4.09594 0.188474 3.19141 0.132882C1.76302 0.0450931 0.644531 1.20753 0.644531 2.58176V12.7987C0.644531 14.2069 1.78467 15.3063 3.13607 15.3908C4.01493 15.4458 5.00389 15.5515 5.73995 15.7458C6.6498 15.9859 7.77492 16.5197 8.68335 17.0039C9.81388 17.6066 11.1835 17.6066 12.314 17.0039C13.2225 16.5197 14.3476 15.9859 15.2574 15.7458C15.9935 15.5515 16.9825 15.4458 17.8613 15.3908C19.2127 15.3063 20.3529 14.2069 20.3529 12.7987V2.52253ZM17.9311 1.45379C18.4946 1.43416 18.9779 1.89774 18.9779 2.52253V12.7987C18.9779 13.4273 18.4569 13.9759 17.7755 14.0185C16.8771 14.0747 15.7779 14.1864 14.9066 14.4163C13.8338 14.6994 12.5912 15.298 11.6673 15.7906C11.513 15.8728 11.3517 15.9375 11.1862 15.9848V3.4473C11.6008 3.36431 12.0039 3.21414 12.3774 2.998C13.157 2.54682 14.069 2.08097 14.8209 1.85588C15.6909 1.59541 16.9055 1.48952 17.9311 1.45379ZM9.8112 3.4775C9.3941 3.41264 8.98527 3.27966 8.60272 3.07737C7.70732 2.6039 6.62189 2.09474 5.73995 1.86201C4.99542 1.66554 3.99254 1.55971 3.10706 1.50529C2.52593 1.46958 2.01953 1.94267 2.01953 2.58176V12.7987C2.01953 13.4273 2.54048 13.9759 3.2219 14.0185C4.12031 14.0747 5.21954 14.1864 6.09078 14.4163C7.16359 14.6994 8.40619 15.298 9.33014 15.7906C9.48437 15.8728 9.64573 15.9375 9.8112 15.9848V3.4775Z" fill="url(#paint0_linear_2864_6750)"/>
<defs>
<linearGradient id="paint0_linear_2864_6750" x1="0.644531" y1="8.76702" x2="17.5374" y2="8.76702" gradientUnits="userSpaceOnUse">
<stop stop-color="#6E30F9"/>
<stop offset="1" stop-color="#FE6917"/>
</linearGradient>
</defs>
</svg>
