<svg width="22" height="22" viewBox="0 0 22 22" fill="none" xmlns="http://www.w3.org/2000/svg">
<path fillRule="evenodd" clipRule="evenodd" d="M20.8543 4.52253C20.8543 3.18117 19.7861 2.03081 18.3847 2.07962C17.3412 2.11597 15.9773 2.22452 14.928 2.53864C14.0159 2.81171 12.9899 3.34506 12.1901 3.80793C11.4402 4.24194 10.5067 4.26358 9.74693 3.86185C8.83441 3.37933 7.63385 2.80738 6.59224 2.53252C5.7115 2.30011 4.5974 2.18847 3.69287 2.13288C2.26448 2.04509 1.146 3.20753 1.146 4.58176V14.7987C1.146 16.2069 2.28613 17.3063 3.63753 17.3908C4.5164 17.4458 5.50535 17.5515 6.24142 17.7458C7.15126 17.9859 8.27638 18.5197 9.18481 19.0039C10.3153 19.6066 11.685 19.6066 12.8155 19.0039C13.7239 18.5197 14.8491 17.9859 15.7589 17.7458C16.495 17.5515 17.4839 17.4458 18.3628 17.3908C19.7142 17.3063 20.8543 16.2069 20.8543 14.7987V4.52253ZM18.4326 3.45379C18.9961 3.43416 19.4793 3.89774 19.4793 4.52253V14.7987C19.4793 15.4273 18.9584 15.9759 18.277 16.0185C17.3785 16.0747 16.2793 16.1864 15.4081 16.4163C14.3353 16.6994 13.0927 17.298 12.1687 17.7906C12.0145 17.8728 11.8531 17.9375 11.6877 17.9848V5.4473C12.1023 5.36431 12.5054 5.21414 12.8789 4.998C13.6585 4.54682 14.5705 4.08097 15.3223 3.85588C16.1924 3.59541 17.407 3.48952 18.4326 3.45379ZM10.3127 5.4775C9.89557 5.41264 9.48674 5.27966 9.10419 5.07737C8.20878 4.6039 7.12336 4.09474 6.24142 3.86201C5.49689 3.66554 4.49401 3.55971 3.60852 3.50529C3.02739 3.46958 2.521 3.94267 2.521 4.58176V14.7987C2.521 15.4273 3.04194 15.9759 3.72337 16.0185C4.62178 16.0747 5.72101 16.1864 6.59224 16.4163C7.66506 16.6994 8.90766 17.298 9.83161 17.7906C9.98583 17.8728 10.1472 17.9375 10.3127 17.9848V5.4775Z" fill="url(#paint0_linear_2614_8434)"/>
<defs>
<linearGradient id="paint0_linear_2614_8434" x1="1.146" y1="10.767" x2="18.0388" y2="10.767" gradientUnits="userSpaceOnUse">
<stop stopColor="#6E30F9"/>
<stop offset="1" stopColor="#FE6917"/>
</linearGradient>
</defs>
</svg>
