<svg width="75" height="67" viewBox="0 0 75 67" fill="none" xmlns="http://www.w3.org/2000/svg">
<path d="M66.6667 0H8.33333C3.75 0 0 3.75 0 8.33333V58.3333C0 62.9167 3.75 66.6667 8.33333 66.6667H66.6667C71.25 66.6667 75 62.9167 75 58.3333V8.33333C75 3.75 71.25 0 66.6667 0ZM33.3333 29.1667H27.0833V27.0833H18.75V39.5833H27.0833V37.5H33.3333V41.6667C33.3333 43.9583 31.4583 45.8333 29.1667 45.8333H16.6667C14.375 45.8333 12.5 43.9583 12.5 41.6667V25C12.5 22.7083 14.375 20.8333 16.6667 20.8333H29.1667C31.4583 20.8333 33.3333 22.7083 33.3333 25V29.1667ZM62.5 29.1667H56.25V27.0833H47.9167V39.5833H56.25V37.5H62.5V41.6667C62.5 43.9583 60.625 45.8333 58.3333 45.8333H45.8333C43.5417 45.8333 41.6667 43.9583 41.6667 41.6667V25C41.6667 22.7083 43.5417 20.8333 45.8333 20.8333H58.3333C60.625 20.8333 62.5 22.7083 62.5 25V29.1667Z" fill="white"/>
</svg>
