<svg xmlns="http://www.w3.org/2000/svg" width="50" height="50" viewBox="0 0 50 50" fill="none">
<path d="M32.2418 26.8594L35.398 44.6219C35.4334 44.831 35.404 45.046 35.3139 45.238C35.2238 45.4301 35.0772 45.59 34.8937 45.6965C34.7102 45.8029 34.4986 45.8508 34.2872 45.8338C34.0758 45.8167 33.8746 45.7355 33.7105 45.601L26.2522 40.0031C25.8921 39.7341 25.4547 39.5888 25.0053 39.5888C24.5559 39.5888 24.1185 39.7341 23.7584 40.0031L16.2876 45.599C16.1237 45.7332 15.9227 45.8143 15.7115 45.8313C15.5004 45.8484 15.289 45.8007 15.1056 45.6945C14.9223 45.5884 14.7757 45.4288 14.6853 45.2372C14.595 45.0455 14.5653 44.8309 14.6001 44.6219L17.7543 26.8594" stroke="#fe6917" strokeWidth="2" strokeLinecap="round" strokeLinejoin="round" fill="#e9ecff"/>
<path d="M25 29.1719C31.9036 29.1719 37.5 23.5754 37.5 16.6719C37.5 9.76832 31.9036 4.17188 25 4.17188C18.0964 4.17188 12.5 9.76832 12.5 16.6719C12.5 23.5754 18.0964 29.1719 25 29.1719Z" stroke="#fe6917" strokeWidth="2" strokeLinecap="round" strokeLinejoin="round" fill="#e9ecff"/>
</svg>