<svg xmlns="http://www.w3.org/2000/svg" width="28" height="28" viewBox="0 0 28 28" fill="none">
<path d="M25.4344 11.6654C25.9672 14.2803 25.5875 16.9988 24.3585 19.3675C23.1296 21.7363 21.1257 23.6122 18.6811 24.6823C16.2365 25.7524 13.4989 25.9522 10.9249 25.2482C8.35084 24.5442 6.09593 22.9791 4.53619 20.8138C2.97646 18.6485 2.20618 16.0139 2.35381 13.3494C2.50145 10.6849 3.55806 8.15154 5.34746 6.1718C7.13686 4.19206 9.55088 2.8856 12.1869 2.4703C14.823 2.05499 17.5218 2.55594 19.8332 3.8896" stroke="url(#paint0_linear_2876_8516)" stroke-width="1.8" stroke-linecap="round" fill="#000000"/>
<path d="M10.5 12.8346L14 16.3346L25.6667 4.66797" stroke="url(#paint1_linear_2876_8516)" stroke-width="1.8" stroke-linecap="round" fill="#000000"/>
<defs fill="#000000">
<linearGradient id="paint0_linear_2876_8516" x1="2.33594" y1="13.9948" x2="22.336" y2="13.9948" gradientUnits="userSpaceOnUse" fill="#000000">
<stop stop-color="#fe6917" fill="#000000"/>
<stop offset="1" stop-color="#FE6917" fill="#000000"/>
</linearGradient>
<linearGradient id="paint1_linear_2876_8516" x1="10.5" y1="10.5013" x2="23.5" y2="10.5013" gradientUnits="userSpaceOnUse" fill="#000000">
<stop stop-color="#fe6917" fill="#000000"/>
<stop offset="1" stop-color="#FE6917" fill="#000000"/>
</linearGradient>
</defs>
</svg>