<svg width="78" height="84" viewBox="0 0 78 84" fill="none" xmlns="http://www.w3.org/2000/svg">
<path d="M30.8686 5.0869C30.5892 4.81181 30.3671 4.48412 30.2149 4.12274C30.0628 3.76135 29.9837 3.37343 29.9823 2.98133C29.9808 2.58923 30.057 2.20073 30.2065 1.83823C30.3559 1.47572 30.5756 1.14639 30.853 0.869237C31.1303 0.59208 31.4598 0.372578 31.8224 0.223394C32.185 0.0742099 32.5736 -0.00170466 32.9657 2.90381e-05C33.3578 0.00176274 33.7457 0.0811106 34.1069 0.233496C34.4682 0.385881 34.7957 0.608287 35.0706 0.887886L42.3083 8.12551L42.3429 8.15917C42.6186 8.43453 42.8372 8.7616 42.9862 9.12162C43.1352 9.48165 43.2117 9.86755 43.2112 10.2572C43.2119 10.6555 43.1322 11.0499 42.9769 11.4167C42.8215 11.7835 42.5938 12.1151 42.3073 12.3918L35.0696 19.6295C34.7946 19.9089 34.467 20.1312 34.1056 20.2834C33.7443 20.4356 33.3564 20.5148 32.9643 20.5163C32.5722 20.5179 32.1837 20.4418 31.8211 20.2924C31.4586 20.1431 31.1292 19.9234 30.852 19.6461C30.5747 19.3689 30.3552 19.0394 30.2059 18.6768C30.0566 18.3143 29.9806 17.9257 29.9823 17.5336C29.9839 17.1415 30.0632 16.7536 30.2155 16.3923C30.3678 16.031 30.5901 15.7034 30.8696 15.4285L33.234 13.0641C25.8071 14.2991 19.0353 18.0628 14.065 23.7178C9.0947 29.3729 6.23139 36.5718 5.95987 44.0958C5.68835 51.6197 8.0253 59.0063 12.575 65.0049C17.1248 71.0035 23.6077 75.2455 30.9262 77.0126C38.2447 78.7798 45.9491 77.9635 52.7348 74.702C59.5205 71.4405 64.9706 65.9342 68.1623 59.1154C71.3541 52.2965 72.0913 44.5842 70.2491 37.2842C68.407 29.9843 64.0987 23.5452 58.0538 19.0572C57.4212 18.5876 57.0011 17.8858 56.8859 17.1065C56.7707 16.3271 56.9698 15.5338 57.4394 14.9013C57.9091 14.2687 58.6108 13.8486 59.3902 13.7334C60.1696 13.6181 60.9628 13.8173 61.5954 14.2869C68.7618 19.6075 73.8624 27.2477 76.0285 35.9065C78.1946 44.5653 77.2923 53.7073 73.4753 61.7756C69.6582 69.8438 63.1624 76.3395 55.0941 80.1564C47.0257 83.9734 37.8838 84.8755 29.225 82.7092C20.5662 80.543 12.9261 75.4423 7.60563 68.2757C2.28515 61.1092 -0.386645 52.3199 0.0452248 43.4047C0.477094 34.4896 3.98593 25.9997 9.97419 19.381C15.9624 12.7623 24.0599 8.4239 32.8875 7.10472L30.8686 5.0869Z" fill="white"/>
<path d="M31.427 29.1135C31.427 25.6452 27.2854 23.8521 24.7567 26.2254L19.729 30.9442C19.4437 31.2109 19.2138 31.5313 19.0524 31.887C18.8911 32.2426 18.8015 32.6266 18.7887 33.017C18.7759 33.4073 18.8403 33.7964 18.978 34.1618C19.1158 34.5273 19.3243 34.862 19.5916 35.1467C19.8588 35.4315 20.1796 35.6608 20.5356 35.8214C20.8916 35.9821 21.2758 36.071 21.6662 36.083C22.0565 36.0949 22.4454 36.0298 22.8106 35.8914C23.1758 35.7529 23.5101 35.5437 23.7943 35.2759L25.4864 33.6878V61.0719C25.4864 61.8597 25.7994 62.6152 26.3564 63.1723C26.9134 63.7293 27.6689 64.0422 28.4567 64.0422C29.2445 64.0422 30 63.7293 30.557 63.1723C31.1141 62.6152 31.427 61.8597 31.427 61.0719V29.1135Z" fill="white"/>
<path fill-rule="evenodd" clip-rule="evenodd" d="M39.1797 36.6225C39.1797 31.0324 43.7114 26.5017 49.3015 26.5017C54.8916 26.5017 59.4223 31.0324 59.4223 36.6225V53.9245C59.4223 59.5136 54.8906 64.0453 49.3015 64.0453C43.7124 64.0453 39.1797 59.5136 39.1797 53.9245V36.6225ZM53.4817 36.6225V53.9245C53.4817 55.0331 53.0413 56.0964 52.2573 56.8803C51.4734 57.6643 50.4101 58.1047 49.3015 58.1047C48.1928 58.1047 47.1296 57.6643 46.3456 56.8803C45.5617 56.0964 45.1213 55.0331 45.1213 53.9245V36.6225C45.1213 35.5138 45.5617 34.4506 46.3456 33.6667C47.1296 32.8827 48.1928 32.4423 49.3015 32.4423C50.4101 32.4423 51.4734 32.8827 52.2573 33.6667C53.0413 34.4506 53.4817 35.5138 53.4817 36.6225Z" fill="white"/>
</svg>
