<svg width="28" height="28" viewBox="0 0 28 28" fill="none" xmlns="http://www.w3.org/2000/svg">
<path fill-rule="evenodd" clip-rule="evenodd" d="M2.94167 9.12523C2.33594 10.2319 2.33594 11.5668 2.33594 14.2366V16.0111C2.33594 20.5622 2.33594 22.8377 3.70277 24.2515C5.06961 25.6654 7.2695 25.6654 11.6693 25.6654H16.3359C20.7357 25.6654 22.9356 25.6654 24.3024 24.2515C25.6693 22.8377 25.6693 20.5622 25.6693 16.0111V14.2366C25.6693 11.5668 25.6693 10.2319 25.0635 9.12523C24.4578 8.01861 23.3512 7.3318 21.1379 5.95818L18.8046 4.51005C16.465 3.05804 15.2952 2.33203 14.0026 2.33203C12.71 2.33203 11.5402 3.05804 9.20064 4.51005L6.86731 5.95818C4.65404 7.3318 3.54741 8.01861 2.94167 9.12523ZM13.1276 20.9987C13.1276 21.4819 13.5194 21.8737 14.0026 21.8737C14.4859 21.8737 14.8776 21.4819 14.8776 20.9987V17.4987C14.8776 17.0154 14.4859 16.6237 14.0026 16.6237C13.5194 16.6237 13.1276 17.0155 13.1276 17.4987V20.9987Z" fill="#051600"/>
</svg>
