<svg width="150" height="192" viewBox="0 0 150 192" fill="none" xmlns="http://www.w3.org/2000/svg">
<path d="M121.957 49.6543L121.594 47.9355L121.582 47.938L121.57 47.9405L121.957 49.6543ZM99.1492 183.751C98.7891 184.652 99.2313 185.673 100.137 186.031L114.898 191.875C115.805 192.234 116.831 191.794 117.191 190.893C117.551 189.991 117.11 188.97 116.204 188.612L103.082 183.417L108.304 170.363C108.664 169.462 108.222 168.441 107.316 168.082C106.411 167.724 105.383 168.164 105.023 169.065L99.1492 183.751ZM6.20754 2.59524C6.67315 1.74308 6.35622 0.676766 5.49965 0.213555C4.64308 -0.249656 3.57125 0.0656457 3.10563 0.9178L6.20754 2.59524ZM21.8811 49.2752C39.6442 61.0188 61.7045 73.3753 82.8279 80.736C103.823 88.0519 124.461 90.6334 138.925 81.986L137.107 78.9753C124.109 86.7461 104.864 84.6933 83.995 77.4212C63.254 70.1936 41.4672 58.0069 23.8353 46.3498L21.8811 49.2752ZM149.896 61.2412C149.421 56.6934 147.468 52.1592 142.808 49.3955C138.221 46.6746 131.373 45.8929 121.594 47.9355L122.319 51.373C131.697 49.4142 137.504 50.3381 141.001 52.4124C144.425 54.444 145.986 57.7947 146.384 61.6044L149.896 61.2412ZM121.57 47.9405C110.715 50.3591 96.3239 56.8528 87.854 68.7151C83.5944 74.6809 80.853 81.9828 80.827 90.7186C80.801 99.4363 83.4784 109.476 89.8771 120.95L92.9645 119.246C86.7828 108.162 84.3337 98.7093 84.3575 90.7292C84.3813 82.7664 86.8662 76.1637 90.7323 70.7491C98.5137 59.8502 111.97 53.679 122.342 51.368L121.57 47.9405ZM97.2789 131.259C103.675 139.216 110.218 149.846 112.163 159.653C113.13 164.53 112.934 169.071 111.158 172.964C109.395 176.825 105.982 180.263 100.091 182.787L101.487 186.013C108.031 183.209 112.183 179.213 114.372 174.417C116.546 169.653 116.686 164.315 115.626 158.974C113.519 148.345 106.563 137.185 100.036 129.066L97.2789 131.259ZM3.58555 13.0609C3.83258 9.1223 4.63245 5.47796 6.20754 2.59524L3.10563 0.9178C1.19473 4.41513 0.326624 8.62037 0.0618439 12.8422L3.58555 13.0609ZM89.8771 120.95C91.9751 124.711 94.7131 128.067 97.2789 131.259L100.036 129.066C97.4236 125.815 94.8905 122.699 92.9645 119.246L89.8771 120.95ZM138.925 81.986C146.035 77.7362 150.772 69.6301 149.896 61.2412L146.384 61.6044C147.1 68.4596 143.204 75.3311 137.107 78.9753L138.925 81.986ZM23.8353 46.3498C11.9523 38.4936 2.73592 26.6079 3.58555 13.0609L0.0618439 12.8422C-0.901269 28.1985 9.51992 41.1027 21.8811 49.2752L23.8353 46.3498Z" fill="url(#paint0_linear_2614_7469)"/>
<defs>
<linearGradient id="paint0_linear_2614_7469" x1="0" y1="96" x2="128.571" y2="96" gradientUnits="userSpaceOnUse">
<stop stopColor="#6E30F9"/>
<stop offset="1" stopColor="#FE6917"/>
</linearGradient>
</defs>
</svg>
