<svg width="74" height="74" viewBox="0 0 74 74" fill="none" xmlns="http://www.w3.org/2000/svg">
<rect width="74" height="74" rx="18" fill="url(#paint0_linear_268_646)"/>
<path d="M37.0002 12C28.9377 12 22.3781 18.5594 22.3781 26.6222V34.9733C22.3781 35.0682 22.261 35.2281 22.169 35.2587C21.3783 35.5223 20.7361 35.7508 20.1482 35.9775C19.4472 36.2477 18.9185 37.0246 18.9185 37.7847V56.9731C18.9185 57.728 19.4438 58.5055 20.1404 58.7816C25.53 60.9173 31.2025 62 37.0002 62C42.7979 62 48.4703 60.9171 53.8602 58.7813C54.5565 58.5054 55.0816 57.728 55.0816 56.9731V37.7847C55.0816 37.0246 54.553 36.2477 53.8516 35.9772C53.2635 35.7506 52.6214 35.5221 51.8313 35.2584C51.7395 35.2278 51.6224 35.0678 51.6224 34.9729V26.6219C51.622 18.5594 45.0628 12 37.0002 12ZM33.0175 43.6288C33.0175 41.4277 34.8006 39.6464 37 39.6464C39.1992 39.6464 40.9823 41.4275 40.9823 43.6288C40.9823 45.0873 40.1598 46.3085 38.9911 47.0007V53.5848C38.9911 54.6855 38.1005 55.576 36.9999 55.576C35.8992 55.576 35.0087 54.6855 35.0087 53.5848V47.0007C33.8401 46.3085 33.0175 45.0873 33.0175 43.6288ZM46.5945 26.6219V33.8274C43.4418 33.1499 40.2262 32.8079 37.0015 32.8072C33.776 32.8082 30.5596 33.1499 27.4058 33.8266V26.6219C27.4058 21.3315 31.7097 17.0277 37 17.0277C42.2902 17.0276 46.5945 21.3315 46.5945 26.6219Z" fill="white"/>
<defs>
<linearGradient id="paint0_linear_268_646" x1="37" y1="0" x2="37" y2="74" gradientUnits="userSpaceOnUse">
<stop stop-color="#7533F0"/>
<stop offset="1" stop-color="#FE6917"/>
</linearGradient>
</defs>
</svg>
