<svg width="90" height="90" viewBox="0 0 90 90" fill="none" xmlns="http://www.w3.org/2000/svg">
<path d="M5.62645 35.1581C7.1177 35.1558 8.54718 34.5621 9.60138 33.5074C10.6556 32.4526 11.2485 31.0229 11.25 29.5316V11.25H29.5868C32.6903 11.25 35.2132 8.7271 35.2132 5.62355C35.2132 2.52 32.6874 0 29.5839 0H5.62355C4.1323 0.00230527 2.70282 0.595923 1.64862 1.65067C0.594416 2.70542 0.00153559 4.1352 0 5.62645V29.5316C0.00230351 31.0224 0.595522 32.4514 1.64964 33.5055C2.70376 34.5596 4.1328 35.1529 5.62355 35.1552L5.62645 35.1581ZM84.3765 54.8419C82.8847 54.8435 81.4545 55.4368 80.3997 56.4916C79.3448 57.5464 78.7515 58.9766 78.75 60.4684V78.75H60.5526C57.449 78.75 54.9261 81.2729 54.9261 84.3765C54.9261 87.48 57.4519 90 60.5526 90H84.3765C85.8677 89.9977 87.2972 89.4041 88.3514 88.3493C89.4056 87.2946 89.9985 85.8648 90 84.3736V60.4684C89.9977 58.9771 89.4041 57.5477 88.3493 56.4935C87.2946 55.4393 85.8648 54.8464 84.3736 54.8448L84.3765 54.8419ZM5.62645 90H29.5868C32.6903 90 35.2132 87.4771 35.2132 84.3736C35.2132 81.27 32.6874 78.75 29.5868 78.75H11.25V60.4684C11.25 57.3677 8.7271 54.8448 5.62645 54.8448C2.52581 54.8448 0 57.3677 0 60.4684V84.3765C0.00230527 85.8677 0.595923 87.2972 1.65067 88.3514C2.70542 89.4056 4.1352 89.9985 5.62645 90ZM84.3765 0H60.5526C57.449 0 54.9261 2.5229 54.9261 5.62645C54.9261 8.73 57.4519 11.25 60.5526 11.25H78.75V29.5316C78.75 32.6323 81.2729 35.1552 84.3765 35.1552C87.48 35.1552 90 32.6323 90 29.5316V5.62355C89.9977 4.1323 89.4041 2.70282 88.3493 1.64862C87.2946 0.594416 85.8677 0.00153559 84.3765 0Z" fill="white"/>
</svg>
