<svg width="50" height="50" viewBox="0 0 50 50" fill="none" xmlns="http://www.w3.org/2000/svg">
<path d="M13.4775 6.16699C17.6628 3.11749 22.8001 1.66267 27.9629 2.06543C33.1255 2.46829 37.9741 4.70262 41.6357 8.36426C45.2974 12.0259 47.5317 16.8745 47.9346 22.0371C48.3373 27.1999 46.8825 32.3372 43.833 36.5225C40.7835 40.7077 36.3395 43.6666 31.3018 44.8652C26.2639 46.0638 20.9631 45.4232 16.3555 43.0596L15.9785 42.8662L15.5781 43.002L2.59766 47.4014L6.99805 34.4219L7.13379 34.0215L6.94043 33.6445C4.57683 29.0369 3.93621 23.7361 5.13477 18.6982C6.33337 13.6605 9.29232 9.21649 13.4775 6.16699Z" stroke="url(#paint0_linear_2614_8054)" strokeWidth="2"/>
<defs>
<linearGradient id="paint0_linear_2614_8054" x1="1" y1="25" x2="42.1429" y2="25" gradientUnits="userSpaceOnUse">
<stop stopColor="#6E30F9"/>
<stop offset="1" stopColor="#FE6917"/>
</linearGradient>
</defs>
</svg>
