<svg width="90" height="88" viewBox="0 0 90 88" fill="none" xmlns="http://www.w3.org/2000/svg">
<path d="M31.3425 0.0646568C29.9449 0.0969783 28.6159 0.675152 27.6417 1.67469C26.6675 2.67423 26.126 4.01519 26.1337 5.40886V26.1239H5.48438C3.92625 26.1043 2.41031 26.766 1.47094 27.8091C0.531563 28.8521 0.12375 30.1447 0.12375 31.398C0.12375 32.6514 0.531563 33.944 1.47094 34.987C2.41031 36.03 3.92625 36.6918 5.48438 36.6721H31.4241C32.8237 36.6611 34.1629 36.1019 35.1527 35.1152C36.1424 34.1285 36.7033 32.7934 36.7144 31.398V5.40886C36.7177 4.70516 36.581 4.0078 36.3121 3.35716C36.0432 2.70652 35.6474 2.11555 35.1478 1.61848C34.6482 1.12141 34.0545 0.72812 33.4013 0.461399C32.7481 0.194678 32.0483 0.0598264 31.3425 0.0646568ZM58.4916 0.000167545C57.0923 0.0332337 55.762 0.613186 54.7876 1.61499C53.8133 2.61679 53.2728 3.9602 53.2828 5.35558V31.2046C53.2828 34.0842 55.6847 36.4787 58.5731 36.4787H84.6366C86.1947 36.5011 87.7106 35.8366 88.65 34.7907C89.5922 33.7505 90 32.4579 90 31.2046C90 29.9512 89.5922 28.6586 88.6528 27.6128C87.7134 26.5726 86.1975 25.9108 84.6394 25.9305H63.8662V5.35558C63.8715 4.6506 63.736 3.95163 63.4678 3.29933C63.1995 2.64704 62.8037 2.05446 62.3036 1.55608C61.8034 1.05771 61.2088 0.663486 60.5543 0.396368C59.8999 0.12925 59.1987 -0.00542935 58.4916 0.000167545ZM58.5759 51.328C55.6875 51.328 53.2884 53.7225 53.2856 56.6021V82.5857C53.2659 84.1391 53.9297 85.6503 54.9759 86.5868C56.0222 87.5233 57.3187 87.9299 58.5759 87.9299C59.8331 87.9299 61.1297 87.5205 62.1759 86.5868C63.2222 85.6532 63.8859 84.1391 63.8662 82.5857V61.8762H84.51C86.0681 61.8987 87.5841 61.2341 88.5234 60.1911C89.4628 59.1481 89.8706 57.8555 89.8706 56.6021C89.8706 55.3488 89.46 54.0562 88.5234 53.0132C87.5841 51.9701 86.0681 51.3084 84.51 51.328H58.5759ZM5.36063 51.5215C3.8025 51.4991 2.28656 52.1636 1.34719 53.2038C0.407813 54.2469 0 55.5395 0 56.7956C0 58.0517 0.407813 59.3415 1.34719 60.3818C2.28656 61.4276 3.8025 62.0893 5.36063 62.0697H26.1337V82.653C26.1141 84.2063 26.7778 85.7176 27.8241 86.6541C28.8703 87.5934 30.1669 88 31.4241 88C32.6813 88 33.9778 87.5906 35.0241 86.6541C36.0703 85.7176 36.7341 84.2063 36.7144 82.653V56.7956C36.7033 55.4002 36.1424 54.0651 35.1527 53.0784C34.1629 52.0917 32.8237 51.5325 31.4241 51.5215H5.36063Z" fill="white"/>
</svg>
