<svg width="80" height="80" viewBox="0 0 80 80" fill="none" xmlns="http://www.w3.org/2000/svg">
<path d="M68.2861 11.7155C60.7306 4.16158 50.6861 0 40.0016 0C29.317 0 19.2709 4.16158 11.7155 11.7155C4.16158 19.2709 0 29.317 0 40.0016C0 50.6861 4.16158 60.7322 11.7155 68.2861C19.2709 75.8416 29.3155 80.0016 40 80.0016C50.6845 80.0016 60.7306 75.84 68.2845 68.2861C75.84 60.7306 80 50.6861 80 40.0016C80 29.317 75.8384 19.2725 68.2845 11.717L68.2861 11.7155ZM58.4292 43.0439L33.4786 57.9894C32.9174 58.3251 32.2869 58.4938 31.6564 58.4938C31.0258 58.4938 30.4504 58.3409 29.9082 58.0335C28.7968 57.403 28.1096 56.2254 28.1096 54.947V25.0562C28.1096 23.7793 28.7968 22.6002 29.9082 21.9697C31.0195 21.3391 32.3831 21.3565 33.4786 22.0122L58.4292 36.9576C59.4995 37.5976 60.1537 38.7531 60.1537 40C60.1537 41.2469 59.4995 42.4024 58.4292 43.0424V43.0439Z" fill="white"/>
</svg>
