<svg width="33" height="32" viewBox="0 0 33 32" fill="none" xmlns="http://www.w3.org/2000/svg">
<path d="M31.7205 13.724L27.0663 12.9077C24.9712 12.5479 23.0036 11.6565 21.3516 10.3187C19.6995 8.98093 18.4185 7.24159 17.631 5.2671L15.8648 0.884372C15.7833 0.733112 15.6586 0.60951 15.5066 0.529274C15.3547 0.449037 15.1823 0.415788 15.0114 0.43375C14.8405 0.451713 14.6788 0.520077 14.5468 0.630155C14.4149 0.740233 14.3186 0.887055 14.2703 1.05197L13.454 5.70612C13.0942 7.80119 12.2027 9.76888 10.865 11.4209C9.5272 13.0729 7.78786 14.354 5.81338 15.1415L1.43065 16.9076C1.26233 16.9751 1.12062 17.0956 1.02701 17.2509C0.933406 17.4062 0.893017 17.5879 0.911972 17.7682C0.930927 17.9485 1.00819 18.1178 1.13204 18.2502C1.2559 18.3827 1.41957 18.4711 1.59824 18.5022L6.2524 19.3185C8.34747 19.6783 10.3151 20.5697 11.9672 21.9075C13.6192 23.2452 14.9002 24.9846 15.6877 26.9591L17.4539 31.3418C17.5214 31.5101 17.6419 31.6518 17.7972 31.7454C17.9525 31.839 18.1341 31.8794 18.3145 31.8605C18.4948 31.8415 18.6641 31.7642 18.7965 31.6404C18.929 31.5165 19.0174 31.3529 19.0484 31.1742L19.8647 26.52C20.2245 24.425 21.116 22.4573 22.4537 20.8053C23.7915 19.1533 25.5309 17.8722 27.5053 17.0847L31.8881 15.3186C32.0564 15.2511 32.1981 15.1305 32.2917 14.9752C32.3853 14.8199 32.4257 14.6383 32.4067 14.458C32.3878 14.2776 32.3105 14.1084 32.1867 13.9759C32.0628 13.8435 31.8991 13.755 31.7205 13.724Z" fill="url(#paint0_linear_939_757)"/>
<defs>
<linearGradient id="paint0_linear_939_757" x1="0.915548" y1="17.8022" x2="27.9111" y2="14.9649" gradientUnits="userSpaceOnUse">
<stop stop-color="#6E30F9"/>
<stop offset="1" stop-color="#FE6917"/>
</linearGradient>
</defs>
</svg>
