<svg width="45" height="45" viewBox="0 0 45 45" fill="none" xmlns="http://www.w3.org/2000/svg">
<path d="M37.7201 19.7211L33.066 18.9048C30.9709 18.545 29.0032 17.6535 27.3512 16.3158C25.6992 14.978 24.4182 13.2387 23.6306 11.2642L21.8645 6.88144C21.7829 6.73018 21.6583 6.60658 21.5063 6.52634C21.3543 6.44611 21.182 6.41286 21.0111 6.43082C20.8402 6.44878 20.6784 6.51715 20.5465 6.62723C20.4145 6.7373 20.3183 6.88413 20.27 7.04904L19.4536 11.7032C19.0938 13.7983 18.2024 15.7659 16.8646 17.418C15.5269 19.07 13.7875 20.351 11.813 21.1385L7.43031 22.9047C7.26199 22.9722 7.12028 23.0927 7.02668 23.248C6.93307 23.4033 6.89268 23.5849 6.91164 23.7653C6.93059 23.9456 7.00786 24.1149 7.13171 24.2473C7.25556 24.3798 7.41924 24.4682 7.59791 24.4992L12.2521 25.3155C14.3471 25.6753 16.3148 26.5668 17.9668 27.9045C19.6188 29.2423 20.8999 30.9816 21.6874 32.9561L23.4535 37.3389C23.521 37.5072 23.6416 37.6489 23.7969 37.7425C23.9522 37.8361 24.1338 37.8765 24.3141 37.8575C24.4945 37.8386 24.6637 37.7613 24.7962 37.6375C24.9286 37.5136 25.0171 37.3499 25.0481 37.1713L25.8644 32.5171C26.2242 30.422 27.1156 28.4544 28.4534 26.8024C29.7912 25.1503 31.5305 23.8693 33.505 23.0818L37.8877 21.3156C38.056 21.2482 38.1978 21.1276 38.2914 20.9723C38.385 20.817 38.4254 20.6354 38.4064 20.455C38.3874 20.2747 38.3102 20.1054 38.1863 19.973C38.0625 19.8405 37.8988 19.7521 37.7201 19.7211Z" fill="url(#paint0_linear_2614_8450)"/>
<defs>
<linearGradient id="paint0_linear_2614_8450" x1="6.91521" y1="23.7993" x2="33.9107" y2="20.962" gradientUnits="userSpaceOnUse">
<stop stopColor="#6E30F9"/>
<stop offset="1" stopColor="#FE6917"/>
</linearGradient>
</defs>
</svg>
