<svg width="26" height="26" viewBox="0 0 26 26" fill="none" xmlns="http://www.w3.org/2000/svg">
<path d="M1.368 17.485C1.26388 18.0911 1.16442 18.5635 1.10537 19.0391C1.05875 19.412 0.850506 19.6343 0.505511 19.6016C0.10457 19.5628 -0.0446175 19.2535 0.0113278 18.8666C0.169839 17.7725 0.309702 16.6754 0.513281 15.5891C0.600307 15.1214 0.908006 14.8587 1.42395 15.1478C2.36724 15.6777 3.31365 16.2045 4.2554 16.736C4.61127 16.9365 4.82883 17.238 4.58796 17.6249C4.36729 17.9792 4.02074 17.9 3.70061 17.7182C3.32608 17.5052 2.95156 17.2939 2.5444 17.0639C4.83194 23.1184 12.7902 25.7712 18.352 21.8985C17.4321 21.0982 16.7514 20.1564 16.5509 18.9256C16.4763 18.4641 16.0987 18.5884 15.8127 18.5869C13.1787 18.5806 10.543 18.5573 7.91048 18.6008C7.23448 18.6117 7.09306 18.3988 7.12725 17.7757C7.25313 15.4757 8.78851 13.3886 11.017 12.5665C13.1631 11.774 15.6822 12.3769 17.2114 14.1516C17.6729 14.6878 17.9029 14.6474 18.4064 14.2433C19.948 13.0079 22.234 12.983 23.9031 14.1066C25.5892 15.2426 26.3755 17.3825 25.8269 19.3406C25.2753 21.3111 23.4928 22.719 21.4601 22.7921C21.3311 22.7967 21.0798 22.7936 20.8869 22.7921C19.0657 23.0094 18.8571 22.9879 17.7941 23.5365C11.7319 26.6616 4.51026 24.0586 1.54827 17.7399C1.52807 17.6964 1.49077 17.6591 1.368 17.4882V17.485ZM21.2301 21.6856C23.255 21.6856 24.8541 20.0927 24.8681 18.0616C24.8821 16.0662 23.2441 14.4065 21.2503 14.3972C19.2378 14.3879 17.5253 16.0911 17.5486 18.0771C17.5719 20.0585 19.2316 21.6856 21.2301 21.6856ZM12.4048 17.5021C13.3341 17.5021 14.2665 17.4477 15.1911 17.5177C16.0614 17.583 16.6939 17.4742 16.7529 16.4221C16.7716 16.0973 17.1337 15.858 16.8648 15.4368C15.9806 14.0522 13.9805 13.1104 12.3845 13.3917C10.3798 13.746 8.745 15.1866 8.38757 16.8976C8.28967 17.3669 8.41399 17.5301 8.92216 17.513C10.0815 17.4742 11.2439 17.5006 12.4063 17.5006L12.4048 17.5021Z" fill="white"/>
<path d="M23.4535 8.19858C23.4986 7.6267 23.5405 7.19312 23.5639 6.75955C23.5825 6.39591 23.7255 6.16591 24.1186 6.16902C24.5149 6.17368 24.6672 6.40368 24.647 6.77198C24.5864 7.87845 24.5429 8.98648 24.4512 10.0898C24.403 10.6602 24.0301 10.8467 23.5141 10.6229C22.5242 10.1924 21.5483 9.7262 20.563 9.28641C20.1885 9.12013 20.0409 8.83263 20.1963 8.47831C20.3719 8.07892 20.7324 8.14419 21.0619 8.2825C21.4815 8.45811 21.8948 8.65236 22.3502 8.8575C21.8031 6.87921 19.7689 4.58701 17.5513 3.4075C11.6211 0.252807 4.38086 3.13554 2.18035 9.53195C2.07001 9.85208 2.01717 10.2033 1.63488 10.309C1.16556 10.4379 0.876512 9.97951 1.07543 9.37965C2.44453 5.25369 5.2247 2.51704 9.40816 1.41522C15.1503 -0.0968505 20.72 2.61805 23.2608 7.97636C23.2795 8.01676 23.3199 8.04629 23.4535 8.19858Z" fill="white"/>
<path d="M9.92578 8.61174C9.93044 6.91784 11.27 5.5705 12.953 5.56739C14.6578 5.56428 16.0316 6.9567 16.0176 8.6708C16.0036 10.3616 14.6532 11.7167 12.9748 11.7276C11.2809 11.7385 9.92112 10.3476 9.92734 8.61174H9.92578ZM14.8909 8.65525C14.8956 7.56898 14.0222 6.66454 12.9655 6.66298C11.9243 6.66298 11.0027 7.59851 11.0074 8.6537C11.0121 9.69024 11.8792 10.5558 12.9282 10.5714C14.0502 10.5869 14.8863 9.77105 14.8909 8.65525Z" fill="white"/>
<path d="M21.7782 16.7298C21.6477 17.2738 21.8901 17.5659 22.5941 17.4602C22.8707 17.4183 23.1597 17.454 23.4426 17.4602C23.7658 17.4649 23.9989 17.597 24.016 17.9482C24.0331 18.3165 23.8233 18.5108 23.4737 18.5714C23.4488 18.576 23.4224 18.5745 23.396 18.576C22.8862 18.5962 22.2506 18.4393 21.901 18.6864C21.5669 18.921 21.8248 19.597 21.7689 20.0757C21.7316 20.3974 21.5948 20.6227 21.2514 20.6351C20.8769 20.6491 20.6982 20.43 20.6515 20.071C20.5894 19.5939 20.8675 18.9459 20.5086 18.6817C20.1838 18.4439 19.573 18.5885 19.0897 18.5776C18.7137 18.5698 18.4976 18.346 18.4712 18.0181C18.4401 17.6421 18.7059 17.482 19.0664 17.468C19.5513 17.4494 20.1496 17.5939 20.493 17.3623C20.8862 17.0966 20.5723 16.4532 20.65 15.9808C20.709 15.6249 20.8256 15.3172 21.2669 15.339C21.6756 15.3576 21.7502 15.6653 21.7767 15.9886C21.7937 16.1937 21.7798 16.4004 21.7798 16.7329L21.7782 16.7298Z" fill="white"/>
</svg>
