<svg width="44" height="54" viewBox="0 0 44 54" fill="none" xmlns="http://www.w3.org/2000/svg">
<path d="M22.001 1.33203C22.5057 1.33203 22.9941 1.51212 23.3779 1.83984C28.1547 6.01309 35.015 9.33301 40.668 9.33301C41.11 9.33301 41.5341 9.50873 41.8467 9.82129C42.1592 10.1338 42.335 10.558 42.335 11V29.667C42.3349 36.0693 40.1057 40.8199 36.5654 44.4521C32.9997 48.1106 28.0588 50.6778 22.5869 52.5859C22.224 52.7089 21.8299 52.703 21.4707 52.5693L21.4473 52.5615L20.4248 52.1982C15.3465 50.342 10.7874 47.876 7.44043 44.4482C3.89747 40.8196 1.66807 36.0694 1.66797 29.667V11C1.66797 10.558 1.84369 10.1339 2.15625 9.82129C2.4688 9.5088 2.89299 9.33301 3.33496 9.33301C8.81494 9.33288 15.4532 6.18814 20.1807 2.21973L20.6328 1.83301C21.0153 1.50971 21.4999 1.33211 22.001 1.33203Z" stroke="url(#paint0_linear_37_1342)" stroke-width="2"/>
<defs>
<linearGradient id="paint0_linear_37_1342" x1="0.667969" y1="27.0032" x2="37.2394" y2="27.0032" gradientUnits="userSpaceOnUse">
<stop stop-color="#6E30F9"/>
<stop offset="1" stop-color="#FE6917"/>
</linearGradient>
</defs>
</svg>
