<svg width="64" height="64" viewBox="0 0 64 64" fill="none" xmlns="http://www.w3.org/2000/svg">
<path d="M32.001 6.32812C32.5057 6.32812 32.9941 6.50821 33.3779 6.83594C38.1547 11.0092 45.015 14.3291 50.668 14.3291C51.11 14.3291 51.5341 14.5048 51.8467 14.8174C52.1592 15.1299 52.335 15.5541 52.335 15.9961V34.6631C52.3349 41.0654 50.1057 45.816 46.5654 49.4482C42.9997 53.1067 38.0588 55.6739 32.5869 57.582C32.224 57.705 31.8298 57.6991 31.4707 57.5654L31.4473 57.5576L30.4248 57.1943C25.3465 55.3381 20.7874 52.8721 17.4404 49.4443C13.8975 45.8157 11.6681 41.0655 11.668 34.6631V15.9961L11.6758 15.8311C11.7137 15.4496 11.8828 15.0908 12.1562 14.8174C12.4688 14.5049 12.893 14.3291 13.335 14.3291C18.8149 14.329 25.4532 11.1842 30.1807 7.21582L30.6328 6.8291C31.0153 6.50581 31.4999 6.3282 32.001 6.32812Z" stroke="url(#paint0_linear_2614_8194)" stroke-width="2"/>
<defs>
<linearGradient id="paint0_linear_2614_8194" x1="10.668" y1="31.9993" x2="47.2394" y2="31.9993" gradientUnits="userSpaceOnUse">
<stop stop-color="#6E30F9"/>
<stop offset="1" stop-color="#FE6917"/>
</linearGradient>
</defs>
</svg>
