<svg width="64" height="64" viewBox="0 0 64 64" fill="none" xmlns="http://www.w3.org/2000/svg">
<path d="M32.001 6.33203C32.5057 6.33203 32.9941 6.51212 33.3779 6.83984C38.1547 11.0131 45.015 14.333 50.668 14.333C51.11 14.333 51.5341 14.5087 51.8467 14.8213C52.1592 15.1338 52.335 15.558 52.335 16V34.667C52.3349 41.0693 50.1057 45.8199 46.5654 49.4521C42.9997 53.1106 38.0588 55.6778 32.5869 57.5859C32.224 57.7089 31.8299 57.703 31.4707 57.5693L31.4473 57.5615L30.4248 57.1982C25.3465 55.342 20.7874 52.876 17.4404 49.4482C13.8975 45.8196 11.6681 41.0694 11.668 34.667V16C11.668 15.558 11.8437 15.1339 12.1562 14.8213C12.4688 14.5088 12.893 14.333 13.335 14.333C18.8149 14.3329 25.4532 11.1881 30.1807 7.21973L30.6328 6.83301C31.0153 6.50971 31.4999 6.33211 32.001 6.33203Z" stroke="#FE6917" stroke-width="2"/>
</svg>
