<svg width="86" height="74" viewBox="0 0 86 74" fill="none" xmlns="http://www.w3.org/2000/svg">
<g clip-path="url(#clip0_3182_2638)">
<path d="M47.484 0.987488C46.0377 0.310354 44.4257 0.0680099 42.8442 0.289923C41.2627 0.511836 39.7798 1.18845 38.5756 2.23749L17.459 20.3333H10.6673C8.45718 20.3333 6.33756 21.2113 4.77476 22.7741C3.21196 24.3369 2.33398 26.4565 2.33398 28.6667V45.3333C2.33398 47.5435 3.21196 49.6631 4.77476 51.2259C6.33756 52.7887 8.45718 53.6667 10.6673 53.6667H17.459L38.584 71.7667C39.7919 72.815 41.2779 73.4907 42.8619 73.7118C44.446 73.9329 46.0602 73.69 47.509 73.0125C48.9583 72.3512 50.1852 71.2843 51.0415 69.9408C51.8977 68.5974 52.3466 67.0347 52.334 65.4417V8.55832C52.3444 6.9625 51.8918 5.39791 51.031 4.05415C50.1701 2.71039 48.938 1.64514 47.484 0.987488ZM58.8507 20.55C57.9255 21.1553 57.2786 22.1032 57.052 23.1853C56.8254 24.2674 57.0378 25.3952 57.6423 26.3208C59.6206 29.5316 60.6681 33.2287 60.6681 37C60.6681 40.7713 59.6206 44.4684 57.6423 47.6791C57.0373 48.6041 56.8245 49.7315 57.0507 50.8133C57.2769 51.8952 57.9236 52.8429 58.8486 53.4479C59.7735 54.0529 60.9009 54.2657 61.9828 54.0395C63.0646 53.8133 64.0123 53.1666 64.6173 52.2416C67.5334 47.6972 69.057 42.3993 69.0006 37C69.0558 31.6009 67.5323 26.3033 64.6173 21.7583C64.0128 20.8335 63.0656 20.1866 61.9842 19.96C60.9028 19.7334 59.7756 19.9456 58.8507 20.55ZM77.3548 8.44999C77.0511 7.99474 76.6608 7.60376 76.206 7.29938C75.7512 6.995 75.2409 6.78317 74.7043 6.676C74.1676 6.56882 73.6151 6.5684 73.0783 6.67475C72.5415 6.7811 72.0309 6.99214 71.5756 7.29582C71.1204 7.5995 70.7294 7.98988 70.425 8.44466C70.1207 8.89944 69.9088 9.40972 69.8017 9.94637C69.6945 10.483 69.6941 11.0355 69.8004 11.5723C69.9068 12.1091 70.1178 12.6197 70.4215 13.075C75.0105 20.2048 77.4133 28.5214 77.334 37C77.4066 45.3638 75.0721 53.572 70.609 60.6458C70.004 61.5708 69.7911 62.6982 70.0174 63.78C70.2436 64.8619 70.8903 65.8095 71.8152 66.4146C72.7402 67.0196 73.8676 67.2324 74.9494 67.0062C76.0313 66.78 76.979 66.1333 77.584 65.2083C82.9646 56.7919 85.7738 46.9888 85.6673 37C85.7401 26.8763 82.8507 16.9523 77.3548 8.44999Z" fill="white"/>
</g>
<g clip-path="url(#clip1_3182_2638)">
<path fill-rule="evenodd" clip-rule="evenodd" d="M18.0145 16.2856L37.3054 1.82305C43.2686 -2.64366 51.7725 1.60604 51.7725 9.05658V63.281C51.7725 70.7315 43.2686 74.9812 37.3054 70.5145L18.0145 56.0474C16.4488 54.8752 14.5452 54.2423 12.5893 54.2436H9.04192C6.64542 54.2436 4.34694 53.2922 2.65151 51.5984C0.956082 49.9047 0.0023965 47.6072 0 45.2107V27.1359C0 24.7378 0.952628 22.438 2.64832 20.7423C4.344 19.0466 6.64385 18.094 9.04192 18.094H12.5938C14.5497 18.0953 16.4533 17.4623 18.019 16.2901L18.0145 16.2856ZM63.3507 24.5951C62.7114 23.9772 61.8551 23.635 60.966 23.6423C60.077 23.6496 59.2264 24.0058 58.5974 24.6342C57.9685 25.2625 57.6115 26.1128 57.6033 27.0018C57.5952 27.8909 57.9366 28.7475 58.5539 29.3873L65.1997 36.0331L58.5539 42.679C57.955 43.3217 57.6289 44.1719 57.6444 45.0503C57.6599 45.9287 58.0158 46.7668 58.637 47.3881C59.2582 48.0093 60.0964 48.3652 60.9748 48.3807C61.8532 48.3962 62.7034 48.0701 63.3461 47.4712L69.9919 40.8254L76.6377 47.4712C77.2805 48.0701 78.1307 48.3962 79.0091 48.3807C79.8875 48.3652 80.7256 48.0093 81.3469 47.3881C81.9681 46.7668 82.324 45.9287 82.3395 45.0503C82.355 44.1719 82.0289 43.3217 81.43 42.679L74.7842 36.0331L81.43 29.3873C82.0289 28.7446 82.355 27.8944 82.3395 27.016C82.324 26.1376 81.9681 25.2994 81.3469 24.6782C80.7256 24.057 79.8875 23.7011 79.0091 23.6856C78.1307 23.6701 77.2805 23.9962 76.6377 24.5951L69.9919 31.2409L63.3507 24.5951Z" fill="white"/>
</g>
<defs>
<clipPath id="clip0_3182_2638">
<rect width="30" height="74" fill="white" transform="translate(56)"/>
</clipPath>
<clipPath id="clip1_3182_2638">
<rect width="54" height="73" fill="white"/>
</clipPath>
</defs>
</svg>
