<svg width="83" height="73" viewBox="0 0 83 73" fill="none" xmlns="http://www.w3.org/2000/svg">
<path fill-rule="evenodd" clip-rule="evenodd" d="M18.0145 16.2856L37.3054 1.82305C43.2686 -2.64366 51.7725 1.60604 51.7725 9.05658V63.281C51.7725 70.7315 43.2686 74.9812 37.3054 70.5145L18.0145 56.0474C16.4488 54.8752 14.5452 54.2423 12.5893 54.2436H9.04192C6.64542 54.2436 4.34694 53.2922 2.65151 51.5984C0.956082 49.9047 0.0023965 47.6072 0 45.2107V27.1359C0 24.7378 0.952628 22.438 2.64832 20.7423C4.344 19.0466 6.64385 18.094 9.04192 18.094H12.5938C14.5497 18.0953 16.4533 17.4623 18.019 16.2901L18.0145 16.2856ZM63.3507 24.5951C62.7114 23.9772 61.8551 23.635 60.966 23.6423C60.077 23.6496 59.2264 24.0058 58.5974 24.6342C57.9685 25.2625 57.6115 26.1128 57.6033 27.0018C57.5952 27.8909 57.9366 28.7475 58.5539 29.3873L65.1997 36.0331L58.5539 42.679C57.955 43.3217 57.6289 44.1719 57.6444 45.0503C57.6599 45.9287 58.0158 46.7668 58.637 47.3881C59.2582 48.0093 60.0964 48.3652 60.9748 48.3807C61.8532 48.3962 62.7034 48.0701 63.3461 47.4712L69.9919 40.8254L76.6377 47.4712C77.2805 48.0701 78.1307 48.3962 79.0091 48.3807C79.8875 48.3652 80.7256 48.0093 81.3469 47.3881C81.9681 46.7668 82.324 45.9287 82.3395 45.0503C82.355 44.1719 82.0289 43.3217 81.43 42.679L74.7842 36.0331L81.43 29.3873C82.0289 28.7446 82.355 27.8944 82.3395 27.016C82.324 26.1376 81.9681 25.2994 81.3469 24.6782C80.7256 24.057 79.8875 23.7011 79.0091 23.6856C78.1307 23.6701 77.2805 23.9962 76.6377 24.5951L69.9919 31.2409L63.3507 24.5951Z" fill="white"/>
</svg>
