<svg xmlns="http://www.w3.org/2000/svg" version="1.1" xmlns:xlink="http://www.w3.org/1999/xlink" width="512" height="512" x="0" y="0" viewBox="0 0 24 24" style="enable-background:new 0 0 512 512" xml:space="preserve" class=""><g><linearGradient id="a" x1=".521" x2="21.495" y1="8.162" y2="17.942" gradientUnits="userSpaceOnUse"><stop offset="0" stop-color="#fff" stop-opacity=".2"></stop><stop offset="1" stop-color="#fff" stop-opacity="0"></stop></linearGradient><path fill="#303c42" d="M23.95 9.192a1.005 1.005 0 0 0-.889-.69l-7.386-.462-2.757-6.432a.998.998 0 0 0-1.837-.002L8.324 8.04l-7.386.462a1.003 1.003 0 0 0-.887.686.993.993 0 0 0 .309 1.081l5.543 4.619-1.383 6.916a.997.997 0 0 0 .406 1.015c.32.225.769.237 1.098.033L12 19.174l5.974 3.677a1 1 0 0 0 1.505-1.047l-1.383-6.916 5.543-4.62a.991.991 0 0 0 .311-1.076z" opacity="1" data-original="#303c42" class=""></path><path fill="#e6e6e6" d="M17.228 14.31a.5.5 0 0 0-.17.482l1.439 7.206-6.236-3.837a.498.498 0 0 0-.523 0L5.5 22l1.441-7.208a.499.499 0 0 0-.17-.482L1.001 9.5l7.693-.481a.503.503 0 0 0 .429-.302L11.999 2l2.879 6.717c.075.174.24.291.429.302l7.692.481z" opacity="1" data-original="#e6e6e6" class=""></path><path fill="url(#a)" d="M23.95 9.192a1.005 1.005 0 0 0-.889-.69l-7.386-.462-2.757-6.432a.998.998 0 0 0-1.837-.002L8.324 8.04l-7.386.462a1.003 1.003 0 0 0-.887.686.993.993 0 0 0 .309 1.081l5.543 4.619-1.383 6.916a.997.997 0 0 0 .406 1.015c.32.225.769.237 1.098.033L12 19.174l5.974 3.677a1 1 0 0 0 1.505-1.047l-1.383-6.916 5.543-4.62a.991.991 0 0 0 .311-1.076z" opacity="1" data-original="url(#a)" class=""></path></g></svg>