<svg width="35" height="35" viewBox="0 0 35 35" fill="none" xmlns="http://www.w3.org/2000/svg">
<path d="M32.4565 14.9454L27.8023 14.1291C25.7072 13.7693 23.7396 12.8778 22.0875 11.5401C20.4355 10.2023 19.1545 8.46295 18.367 6.48847L16.6008 2.10574C16.5193 1.95448 16.3946 1.83088 16.2426 1.75064C16.0907 1.6704 15.9183 1.63715 15.7474 1.65512C15.5765 1.67308 15.4148 1.74144 15.2828 1.85152C15.1509 1.9616 15.0546 2.10842 15.0063 2.27333L14.19 6.92749C13.8302 9.02256 12.9387 10.9902 11.601 12.6423C10.2632 14.2943 8.52385 15.5753 6.54937 16.3628L2.16664 18.129C1.99832 18.1964 1.85661 18.317 1.763 18.4723C1.6694 18.6276 1.62901 18.8092 1.64796 18.9896C1.66692 19.1699 1.74418 19.3392 1.86804 19.4716C1.99189 19.6041 2.15557 19.6925 2.33423 19.7235L6.98839 20.5398C9.08346 20.8996 11.0511 21.7911 12.7032 23.1288C14.3552 24.4666 15.6362 26.2059 16.4237 28.1804L18.1899 32.5632C18.2573 32.7315 18.3779 32.8732 18.5332 32.9668C18.6885 33.0604 18.8701 33.1008 19.0505 33.0818C19.2308 33.0629 19.4001 32.9856 19.5325 32.8618C19.665 32.7379 19.7534 32.5742 19.7844 32.3956L20.6007 27.7414C20.9605 25.6463 21.852 23.6787 23.1897 22.0266C24.5275 20.3746 26.2668 19.0936 28.2413 18.3061L32.6241 16.5399C32.7924 16.4725 32.9341 16.3519 33.0277 16.1966C33.1213 16.0413 33.1617 15.8597 33.1427 15.6793C33.1238 15.499 33.0465 15.3297 32.9227 15.1973C32.7988 15.0648 32.6351 14.9764 32.4565 14.9454Z" fill="#FE6917"/>
</svg>
