<svg width="43" height="43" viewBox="0 0 43 43" fill="none" xmlns="http://www.w3.org/2000/svg">
<path d="M36.3861 21.7723L31.917 20.238C29.904 19.5549 28.1 18.3666 26.6776 16.7869C25.2552 15.2072 24.262 13.2888 23.7931 11.2155L22.7343 6.6104C22.6774 6.44824 22.5736 6.30666 22.436 6.20364C22.2985 6.10062 22.1334 6.04081 21.9618 6.03182C21.7902 6.02283 21.6198 6.06505 21.4723 6.15313C21.3247 6.24121 21.2067 6.37117 21.1331 6.52649L19.5988 10.9956C18.9157 13.0086 17.7274 14.8126 16.1477 16.235C14.568 17.6574 12.6496 18.6506 10.5763 19.1196L5.97122 20.1784C5.79442 20.2187 5.63559 20.3156 5.51884 20.4543C5.40209 20.5931 5.33379 20.7661 5.3243 20.9472C5.31481 21.1283 5.36465 21.3076 5.46626 21.4578C5.56786 21.608 5.71569 21.7209 5.88731 21.7795L10.3565 23.3138C12.3695 23.9969 14.1735 25.1852 15.5959 26.7649C17.0183 28.3447 18.0114 30.263 18.4804 32.3364L19.5392 36.9414C19.5795 37.1182 19.6764 37.277 19.8151 37.3938C19.9539 37.5105 20.1269 37.5788 20.308 37.5883C20.4891 37.5978 20.6684 37.548 20.8186 37.4464C20.9688 37.3448 21.0817 37.197 21.1403 37.0253L22.6746 32.5562C23.3577 30.5432 24.546 28.7392 26.1257 27.3168C27.7055 25.8944 29.6238 24.9012 31.6972 24.4322L36.3022 23.3735C36.479 23.3332 36.6379 23.2363 36.7546 23.0975C36.8714 22.9588 36.9397 22.7857 36.9492 22.6046C36.9586 22.4235 36.9088 22.2443 36.8072 22.0941C36.7056 21.9439 36.5578 21.8309 36.3861 21.7723Z" fill="white"/>
</svg>
